Interstate-Bold.ufo
<glyph name="exclam" format="1">
  <advance width="340"/>
  <unicode hex="0021"/>
  <outline>
    <contour>
      <point x="240" y="412" type="line"/>
      <point x="217" y="220" type="line"/>
      <point x="123" y="220" type="line"/>
      <point x="100" y="412" type="line"/>
      <point x="100" y="700" type="line"/>
      <point x="240" y="700" type="line"/>
    </contour>
    <contour>
      <point x="255" y="74" type="curve" smooth="yes"/>
      <point x="255" y="28"/>
      <point x="216" y="-11"/>
      <point x="170" y="-11" type="curve" smooth="yes"/>
      <point x="124" y="-11"/>
      <point x="85" y="28"/>
      <point x="85" y="74" type="curve" smooth="yes"/>
      <point x="85" y="120"/>
      <point x="124" y="159"/>
      <point x="170" y="159" type="curve" smooth="yes"/>
      <point x="216" y="159"/>
      <point x="255" y="120"/>
    </contour>
  </outline>
</glyph>
<glyph name="quotedbl" format="1">
  <advance width="528"/>
  <unicode hex="0022"/>
  <outline>
    <contour>
      <point x="471" y="700" type="line"/>
      <point x="436" y="373" type="line"/>
      <point x="341" y="373" type="line"/>
      <point x="306" y="700" type="line"/>
    </contour>
    <contour>
      <point x="222" y="700" type="line"/>
      <point x="187" y="373" type="line"/>
      <point x="92" y="373" type="line"/>
      <point x="57" y="700" type="line"/>
    </contour>
  </outline>
</glyph>
<glyph name="numbersign" format="1">
  <advance width="740"/>
  <unicode hex="0023"/>
  <outline>
    <contour>
      <point x="690" y="140" type="line"/>
      <point x="570" y="140" type="line"/>
      <point x="570" y="0" type="line"/>
      <point x="448" y="0" type="line"/>
      <point x="448" y="140" type="line"/>
      <point x="292" y="140" type="line"/>
      <point x="292" y="0" type="line"/>
      <point x="170" y="0" type="line"/>
      <point x="170" y="140" type="line"/>
      <point x="50" y="140" type="line"/>
      <point x="50" y="255" type="line"/>
      <point x="170" y="255" type="line"/>
      <point x="170" y="445" type="line"/>
      <point x="50" y="445" type="line"/>
      <point x="50" y="560" type="line"/>
      <point x="170" y="560" type="line"/>
      <point x="170" y="700" type="line"/>
      <point x="292" y="700" type="line"/>
      <point x="292" y="560" type="line"/>
      <point x="448" y="560" type="line"/>
      <point x="448" y="700" type="line"/>
      <point x="570" y="700" type="line"/>
      <point x="570" y="560" type="line"/>
      <point x="690" y="560" type="line"/>
      <point x="690" y="445" type="line"/>
      <point x="570" y="445" type="line"/>
      <point x="570" y="255" type="line"/>
      <point x="690" y="255" type="line"/>
    </contour>
    <contour>
      <point x="448" y="255" type="line"/>
      <point x="448" y="445" type="line"/>
      <point x="292" y="445" type="line"/>
      <point x="292" y="255" type="line"/>
    </contour>
  </outline>
</glyph>
<glyph name="dollar" format="1">
  <advance width="655"/>
  <unicode hex="0024"/>
  <outline>
    <contour>
      <point x="600" y="212" type="curve" smooth="yes"/>
      <point x="600" y="98"/>
      <point x="539" y="20"/>
      <point x="402" y="-1" type="curve"/>
      <point x="402" y="-100" type="line"/>
      <point x="262" y="-100" type="line"/>
      <point x="262" y="-1" type="line"/>
      <point x="172" y="13"/>
      <point x="96" y="57"/>
      <point x="53" y="121" type="curve"/>
      <point x="154" y="211" type="line"/>
      <point x="203" y="154"/>
      <point x="266" y="131"/>
      <point x="333" y="131" type="curve" smooth="yes"/>
      <point x="416" y="131"/>
      <point x="455" y="149"/>
      <point x="455" y="202" type="curve" smooth="yes"/>
      <point x="455" y="247"/>
      <point x="431" y="267"/>
      <point x="299" y="297" type="curve" smooth="yes"/>
      <point x="170" y="327"/>
      <point x="80" y="368"/>
      <point x="80" y="506" type="curve" smooth="yes"/>
      <point x="80" y="611"/>
      <point x="157" y="680"/>
      <point x="262" y="700" type="curve"/>
      <point x="262" y="800" type="line"/>
      <point x="402" y="800" type="line"/>
      <point x="402" y="699" type="line"/>
      <point x="476" y="685"/>
      <point x="534" y="649"/>
      <point x="585" y="596" type="curve"/>
      <point x="484" y="498" type="line"/>
      <point x="439" y="544"/>
      <point x="389" y="570"/>
      <point x="325" y="570" type="curve" smooth="yes"/>
      <point x="250" y="570"/>
      <point x="225" y="543"/>
      <point x="225" y="512" type="curve" smooth="yes"/>
      <point x="225" y="468"/>
      <point x="255" y="454"/>
      <point x="366" y="428" type="curve" smooth="yes"/>
      <point x="477" y="402"/>
      <point x="600" y="364"/>
    </contour>
  </outline>
</glyph>
<glyph name="ampersand" format="1">
  <advance width="700"/>
  <unicode hex="0026"/>
  <outline>
    <contour>
      <point x="688" y="0" type="line"/>
      <point x="528" y="0" type="line"/>
      <point x="475" y="57" type="line"/>
      <point x="420" y="12"/>
      <point x="353" y="-11"/>
      <point x="271" y="-11" type="curve" smooth="yes"/>
      <point x="128" y="-11"/>
      <point x="41" y="49"/>
      <point x="41" y="175" type="curve" smooth="yes"/>
      <point x="41" y="273"/>
      <point x="95" y="332"/>
      <point x="184" y="376" type="curve"/>
      <point x="166" y="396" type="line" smooth="yes"/>
      <point x="129" y="437"/>
      <point x="105" y="482"/>
      <point x="105" y="538" type="curve" smooth="yes"/>
      <point x="105" y="652"/>
      <point x="195" y="711"/>
      <point x="313" y="711" type="curve" smooth="yes"/>
      <point x="399" y="711"/>
      <point x="455" y="685"/>
      <point x="522" y="638" type="curve"/>
      <point x="455" y="537" type="line"/>
      <point x="409" y="572"/>
      <point x="359" y="587"/>
      <point x="309" y="587" type="curve" smooth="yes"/>
      <point x="268" y="587"/>
      <point x="243" y="570"/>
      <point x="243" y="541" type="curve" smooth="yes"/>
      <point x="243" y="511"/>
      <point x="258" y="491"/>
      <point x="280" y="465" type="curve" smooth="yes"/>
      <point x="473" y="245" type="line"/>
      <point x="489" y="277"/>
      <point x="505" y="315"/>
      <point x="522" y="361" type="curve"/>
      <point x="635" y="325" type="line"/>
      <point x="613" y="257"/>
      <point x="587" y="198"/>
      <point x="556" y="150" type="curve"/>
    </contour>
    <contour>
      <point x="395" y="144" type="curve"/>
      <point x="258" y="294" type="line"/>
      <point x="203" y="265"/>
      <point x="181" y="229"/>
      <point x="181" y="187" type="curve" smooth="yes"/>
      <point x="181" y="142"/>
      <point x="217" y="113"/>
      <point x="287" y="113" type="curve" smooth="yes"/>
      <point x="330" y="113"/>
      <point x="366" y="123"/>
    </contour>
  </outline>
</glyph>
<glyph name="quotesingle" format="1">
  <advance width="284"/>
  <unicode hex="0027"/>
  <outline>
    <contour>
      <point x="227" y="700" type="line"/>
      <point x="192" y="373" type="line"/>
      <point x="92" y="373" type="line"/>
      <point x="57" y="700" type="line"/>
    </contour>
  </outline>
</glyph>
<glyph name="parenleft" format="1">
  <advance width="370"/>
  <unicode hex="0028"/>
  <outline>
    <contour>
      <point x="327" y="-48" type="curve"/>
      <point x="237" y="-110" type="line"/>
      <point x="141" y="-4"/>
      <point x="64" y="114"/>
      <point x="64" y="300" type="curve" smooth="yes"/>
      <point x="64" y="487"/>
      <point x="135" y="603"/>
      <point x="237" y="716" type="curve"/>
      <point x="327" y="654" type="line"/>
      <point x="256" y="562"/>
      <point x="208" y="458"/>
      <point x="208" y="305" type="curve" smooth="yes"/>
      <point x="208" y="148"/>
      <point x="255" y="45"/>
    </contour>
  </outline>
</glyph>
<glyph name="parenright" format="1">
  <advance width="370"/>
  <unicode hex="0029"/>
  <outline>
    <contour>
      <point x="306" y="306" type="curve" smooth="yes"/>
      <point x="306" y="119"/>
      <point x="235" y="3"/>
      <point x="133" y="-110" type="curve"/>
      <point x="43" y="-48" type="line"/>
      <point x="114" y="44"/>
      <point x="162" y="148"/>
      <point x="162" y="301" type="curve" smooth="yes"/>
      <point x="162" y="458"/>
      <point x="115" y="561"/>
      <point x="43" y="654" type="curve"/>
      <point x="133" y="716" type="line"/>
      <point x="229" y="610"/>
      <point x="306" y="492"/>
    </contour>
  </outline>
</glyph>
<glyph name="plus" format="1">
  <advance width="613"/>
  <unicode hex="002B"/>
  <outline>
    <contour>
      <point x="558" y="279" type="line"/>
      <point x="375" y="279" type="line"/>
      <point x="375" y="89" type="line"/>
      <point x="238" y="89" type="line"/>
      <point x="238" y="279" type="line"/>
      <point x="55" y="279" type="line"/>
      <point x="55" y="409" type="line"/>
      <point x="238" y="409" type="line"/>
      <point x="238" y="599" type="line"/>
      <point x="375" y="599" type="line"/>
      <point x="375" y="409" type="line"/>
      <point x="558" y="409" type="line"/>
    </contour>
  </outline>
</glyph>
<glyph name="comma" format="1">
  <advance width="272"/>
  <unicode hex="002C"/>
  <outline>
    <contour>
      <point x="228" y="169" type="line"/>
      <point x="144" y="-126" type="line"/>
      <point x="50" y="-126" type="line"/>
      <point x="65" y="169" type="line"/>
    </contour>
  </outline>
</glyph>
<glyph name="hyphen" format="1">
  <advance width="407"/>
  <unicode hex="002D"/>
  <unicode hex="2010"/>
  <unicode hex="2011"/>
  <outline>
    <contour>
      <point x="347" y="294" type="line"/>
      <point x="60" y="294" type="line"/>
      <point x="60" y="432" type="line"/>
      <point x="347" y="432" type="line"/>
    </contour>
  </outline>
</glyph>
<glyph name="zero" format="1">
  <advance width="688"/>
  <unicode hex="0030"/>
  <outline>
    <contour>
      <point x="638" y="352" type="curve" smooth="yes"/>
      <point x="638" y="139"/>
      <point x="534" y="-11"/>
      <point x="343" y="-11" type="curve" smooth="yes"/>
      <point x="152" y="-11"/>
      <point x="50" y="137"/>
      <point x="50" y="350" type="curve" smooth="yes"/>
      <point x="50" y="563"/>
      <point x="153" y="711"/>
      <point x="344" y="711" type="curve" smooth="yes"/>
      <point x="535" y="711"/>
      <point x="638" y="565"/>
    </contour>
    <contour>
      <point x="496" y="350" type="curve" smooth="yes"/>
      <point x="496" y="475"/>
      <point x="450" y="574"/>
      <point x="343" y="574" type="curve" smooth="yes"/>
      <point x="236" y="574"/>
      <point x="192" y="477"/>
      <point x="192" y="352" type="curve" smooth="yes"/>
      <point x="192" y="227"/>
      <point x="237" y="126"/>
      <point x="344" y="126" type="curve" smooth="yes"/>
      <point x="451" y="126"/>
      <point x="496" y="225"/>
    </contour>
  </outline>
</glyph>
<glyph name="one" format="1">
  <advance width="385"/>
  <unicode hex="0031"/>
  <outline>
    <contour>
      <point x="298" y="0" type="line"/>
      <point x="159" y="0" type="line"/>
      <point x="159" y="506" type="line"/>
      <point x="39" y="506" type="line"/>
      <point x="39" y="609" type="line"/>
      <point x="117" y="613"/>
      <point x="168" y="642"/>
      <point x="182" y="700" type="curve"/>
      <point x="298" y="700" type="line"/>
    </contour>
  </outline>
</glyph>
<glyph name="two" format="1">
  <advance width="683"/>
  <unicode hex="0032"/>
  <outline>
    <contour>
      <point x="611" y="0" type="line"/>
      <point x="63" y="0" type="line"/>
      <point x="67" y="240"/>
      <point x="214" y="344"/>
      <point x="385" y="419" type="curve" smooth="yes"/>
      <point x="445" y="445"/>
      <point x="464" y="473"/>
      <point x="464" y="503" type="curve" smooth="yes"/>
      <point x="464" y="539"/>
      <point x="433" y="574"/>
      <point x="349" y="574" type="curve" smooth="yes"/>
      <point x="266" y="574"/>
      <point x="199" y="537"/>
      <point x="150" y="490" type="curve"/>
      <point x="60" y="595" type="line"/>
      <point x="134" y="670"/>
      <point x="233" y="711"/>
      <point x="344" y="711" type="curve" smooth="yes"/>
      <point x="510" y="711"/>
      <point x="604" y="644"/>
      <point x="604" y="510" type="curve" smooth="yes"/>
      <point x="604" y="397"/>
      <point x="543" y="348"/>
      <point x="424" y="293" type="curve" smooth="yes"/>
      <point x="300" y="236"/>
      <point x="252" y="189"/>
      <point x="239" y="135" type="curve"/>
      <point x="611" y="135" type="line"/>
    </contour>
  </outline>
</glyph>
<glyph name="three" format="1">
  <advance width="645"/>
  <unicode hex="0033"/>
  <outline>
    <contour>
      <point x="588" y="217" type="curve" smooth="yes"/>
      <point x="588" y="66"/>
      <point x="472" y="-11"/>
      <point x="298" y="-11" type="curve" smooth="yes"/>
      <point x="193" y="-11"/>
      <point x="99" y="30"/>
      <point x="21" y="123" type="curve"/>
      <point x="127" y="209" type="line"/>
      <point x="185" y="148"/>
      <point x="240" y="126"/>
      <point x="311" y="126" type="curve" smooth="yes"/>
      <point x="403" y="126"/>
      <point x="446" y="159"/>
      <point x="446" y="215" type="curve" smooth="yes"/>
      <point x="446" y="269"/>
      <point x="409" y="295"/>
      <point x="343" y="295" type="curve" smooth="yes"/>
      <point x="260" y="295" type="line"/>
      <point x="260" y="432" type="line"/>
      <point x="335" y="432" type="line" smooth="yes"/>
      <point x="393" y="432"/>
      <point x="417" y="457"/>
      <point x="417" y="503" type="curve" smooth="yes"/>
      <point x="417" y="539"/>
      <point x="388" y="574"/>
      <point x="300" y="574" type="curve" smooth="yes"/>
      <point x="246" y="574"/>
      <point x="202" y="555"/>
      <point x="163" y="515" type="curve"/>
      <point x="61" y="608" type="line"/>
      <point x="128" y="678"/>
      <point x="198" y="711"/>
      <point x="302" y="711" type="curve" smooth="yes"/>
      <point x="445" y="711"/>
      <point x="559" y="645"/>
      <point x="559" y="513" type="curve" smooth="yes"/>
      <point x="559" y="437"/>
      <point x="519" y="391"/>
      <point x="478" y="370" type="curve"/>
      <point x="523" y="353"/>
      <point x="588" y="309"/>
    </contour>
  </outline>
</glyph>
<glyph name="four" format="1">
  <advance width="695"/>
  <unicode hex="0034"/>
  <outline>
    <contour>
      <point x="654" y="143" type="line"/>
      <point x="562" y="143" type="line"/>
      <point x="562" y="0" type="line"/>
      <point x="427" y="0" type="line"/>
      <point x="427" y="143" type="line"/>
      <point x="44" y="143" type="line"/>
      <point x="44" y="269" type="line"/>
      <point x="415" y="700" type="line"/>
      <point x="562" y="700" type="line"/>
      <point x="562" y="273" type="line"/>
      <point x="654" y="273" type="line"/>
    </contour>
    <contour>
      <point x="430" y="540" type="curve"/>
      <point x="417" y="522"/>
      <point x="391" y="488"/>
      <point x="368" y="461" type="curve" smooth="yes"/>
      <point x="268" y="344" type="line" smooth="yes"/>
      <point x="246" y="318"/>
      <point x="217" y="286"/>
      <point x="202" y="271" type="curve"/>
      <point x="226" y="271"/>
      <point x="301" y="273"/>
      <point x="341" y="273" type="curve" smooth="yes"/>
      <point x="427" y="273" type="line"/>
      <point x="427" y="387" type="line" smooth="yes"/>
      <point x="427" y="427"/>
      <point x="430" y="514"/>
    </contour>
  </outline>
</glyph>
<glyph name="five" format="1">
  <advance width="668"/>
  <unicode hex="0035"/>
  <outline>
    <contour>
      <point x="616" y="244" type="curve" smooth="yes"/>
      <point x="616" y="76"/>
      <point x="496" y="-11"/>
      <point x="324" y="-11" type="curve" smooth="yes"/>
      <point x="223" y="-11"/>
      <point x="139" y="9"/>
      <point x="51" y="64" type="curve"/>
      <point x="119" y="183" type="line"/>
      <point x="184" y="146"/>
      <point x="253" y="124"/>
      <point x="324" y="124" type="curve" smooth="yes"/>
      <point x="419" y="124"/>
      <point x="474" y="164"/>
      <point x="474" y="239" type="curve" smooth="yes"/>
      <point x="474" y="312"/>
      <point x="421" y="343"/>
      <point x="355" y="343" type="curve" smooth="yes"/>
      <point x="292" y="343"/>
      <point x="250" y="324"/>
      <point x="217" y="301" type="curve"/>
      <point x="84" y="350" type="line"/>
      <point x="108" y="700" type="line"/>
      <point x="574" y="700" type="line"/>
      <point x="574" y="565" type="line"/>
      <point x="237" y="565" type="line"/>
      <point x="229" y="444" type="line"/>
      <point x="268" y="465"/>
      <point x="310" y="476"/>
      <point x="376" y="476" type="curve" smooth="yes"/>
      <point x="533" y="476"/>
      <point x="616" y="376"/>
    </contour>
  </outline>
</glyph>
<glyph name="six" format="1">
  <advance width="663"/>
  <unicode hex="0036"/>
  <outline>
    <contour>
      <point x="620" y="229" type="curve" smooth="yes"/>
      <point x="620" y="73"/>
      <point x="490" y="-11"/>
      <point x="325" y="-11" type="curve" smooth="yes"/>
      <point x="169" y="-11"/>
      <point x="47" y="76"/>
      <point x="47" y="272" type="curve" smooth="yes"/>
      <point x="47" y="456"/>
      <point x="155" y="711"/>
      <point x="518" y="711" type="curve"/>
      <point x="518" y="575" type="line"/>
      <point x="356" y="575"/>
      <point x="253" y="518"/>
      <point x="213" y="411" type="curve"/>
      <point x="258" y="441"/>
      <point x="302" y="455"/>
      <point x="373" y="455" type="curve" smooth="yes"/>
      <point x="512" y="455"/>
      <point x="620" y="384"/>
    </contour>
    <contour>
      <point x="478" y="224" type="curve" smooth="yes"/>
      <point x="478" y="295"/>
      <point x="426" y="328"/>
      <point x="338" y="328" type="curve" smooth="yes"/>
      <point x="243" y="328"/>
      <point x="192" y="296"/>
      <point x="192" y="223" type="curve" smooth="yes"/>
      <point x="192" y="158"/>
      <point x="240" y="119"/>
      <point x="331" y="119" type="curve" smooth="yes"/>
      <point x="424" y="119"/>
      <point x="478" y="159"/>
    </contour>
  </outline>
</glyph>
<glyph name="seven" format="1">
  <advance width="631"/>
  <unicode hex="0037"/>
  <outline>
    <contour>
      <point x="569" y="565" type="line"/>
      <point x="427" y="426"/>
      <point x="337" y="242"/>
      <point x="337" y="0" type="curve"/>
      <point x="194" y="0" type="line"/>
      <point x="194" y="227"/>
      <point x="270" y="418"/>
      <point x="400" y="567" type="curve"/>
      <point x="44" y="567" type="line"/>
      <point x="44" y="700" type="line"/>
      <point x="569" y="700" type="line"/>
    </contour>
  </outline>
</glyph>
<glyph name="eight" format="1">
  <advance width="702"/>
  <unicode hex="0038"/>
  <outline>
    <contour>
      <point x="644" y="217" type="curve" smooth="yes"/>
      <point x="644" y="76"/>
      <point x="532" y="-11"/>
      <point x="351" y="-11" type="curve" smooth="yes"/>
      <point x="170" y="-11"/>
      <point x="58" y="72"/>
      <point x="58" y="210" type="curve" smooth="yes"/>
      <point x="58" y="307"/>
      <point x="116" y="357"/>
      <point x="169" y="380" type="curve"/>
      <point x="119" y="407"/>
      <point x="88" y="451"/>
      <point x="88" y="503" type="curve" smooth="yes"/>
      <point x="88" y="641"/>
      <point x="204" y="711"/>
      <point x="351" y="711" type="curve" smooth="yes"/>
      <point x="489" y="711"/>
      <point x="614" y="646"/>
      <point x="614" y="509" type="curve" smooth="yes"/>
      <point x="614" y="459"/>
      <point x="587" y="410"/>
      <point x="533" y="380" type="curve"/>
      <point x="587" y="355"/>
      <point x="644" y="306"/>
    </contour>
    <contour>
      <point x="474" y="506" type="curve" smooth="yes"/>
      <point x="474" y="551"/>
      <point x="443" y="590"/>
      <point x="351" y="590" type="curve" smooth="yes"/>
      <point x="264" y="590"/>
      <point x="228" y="552"/>
      <point x="228" y="507" type="curve" smooth="yes"/>
      <point x="228" y="462"/>
      <point x="270" y="427"/>
      <point x="351" y="427" type="curve" smooth="yes"/>
      <point x="437" y="427"/>
      <point x="474" y="460"/>
    </contour>
    <contour>
      <point x="504" y="212" type="curve" smooth="yes"/>
      <point x="504" y="276"/>
      <point x="457" y="312"/>
      <point x="351" y="312" type="curve" smooth="yes"/>
      <point x="246" y="312"/>
      <point x="198" y="273"/>
      <point x="198" y="213" type="curve" smooth="yes"/>
      <point x="198" y="149"/>
      <point x="262" y="112"/>
      <point x="351" y="112" type="curve" smooth="yes"/>
      <point x="447" y="112"/>
      <point x="504" y="148"/>
    </contour>
  </outline>
</glyph>
<glyph name="nine" format="1">
  <advance width="663"/>
  <unicode hex="0039"/>
  <outline>
    <contour>
      <point x="616" y="428" type="curve" smooth="yes"/>
      <point x="616" y="244"/>
      <point x="508" y="-11"/>
      <point x="145" y="-11" type="curve"/>
      <point x="145" y="125" type="line"/>
      <point x="307" y="125"/>
      <point x="410" y="182"/>
      <point x="450" y="289" type="curve"/>
      <point x="405" y="259"/>
      <point x="361" y="245"/>
      <point x="290" y="245" type="curve" smooth="yes"/>
      <point x="151" y="245"/>
      <point x="43" y="316"/>
      <point x="43" y="471" type="curve" smooth="yes"/>
      <point x="43" y="627"/>
      <point x="173" y="711"/>
      <point x="338" y="711" type="curve" smooth="yes"/>
      <point x="494" y="711"/>
      <point x="616" y="624"/>
    </contour>
    <contour>
      <point x="471" y="477" type="curve" smooth="yes"/>
      <point x="471" y="542"/>
      <point x="423" y="581"/>
      <point x="332" y="581" type="curve" smooth="yes"/>
      <point x="239" y="581"/>
      <point x="185" y="541"/>
      <point x="185" y="476" type="curve" smooth="yes"/>
      <point x="185" y="405"/>
      <point x="237" y="372"/>
      <point x="325" y="372" type="curve" smooth="yes"/>
      <point x="420" y="372"/>
      <point x="471" y="404"/>
    </contour>
  </outline>
</glyph>
<glyph name="colon" format="1">
  <advance width="272"/>
  <unicode hex="003A"/>
  <outline>
    <contour>
      <point x="230" y="442" type="curve" smooth="yes"/>
      <point x="230" y="391"/>
      <point x="187" y="348"/>
      <point x="136" y="348" type="curve" smooth="yes"/>
      <point x="85" y="348"/>
      <point x="42" y="391"/>
      <point x="42" y="442" type="curve" smooth="yes"/>
      <point x="42" y="493"/>
      <point x="85" y="536"/>
      <point x="136" y="536" type="curve" smooth="yes"/>
      <point x="187" y="536"/>
      <point x="230" y="493"/>
    </contour>
    <contour>
      <point x="230" y="83" type="curve" smooth="yes"/>
      <point x="230" y="32"/>
      <point x="187" y="-11"/>
      <point x="136" y="-11" type="curve" smooth="yes"/>
      <point x="85" y="-11"/>
      <point x="42" y="32"/>
      <point x="42" y="83" type="curve" smooth="yes"/>
      <point x="42" y="134"/>
      <point x="85" y="177"/>
      <point x="136" y="177" type="curve" smooth="yes"/>
      <point x="187" y="177"/>
      <point x="230" y="134"/>
    </contour>
  </outline>
</glyph>
<glyph name="semicolon" format="1">
  <advance width="272"/>
  <unicode hex="003B"/>
  <outline>
    <contour>
      <point x="230" y="442" type="curve" smooth="yes"/>
      <point x="230" y="391"/>
      <point x="187" y="348"/>
      <point x="136" y="348" type="curve" smooth="yes"/>
      <point x="85" y="348"/>
      <point x="42" y="391"/>
      <point x="42" y="442" type="curve" smooth="yes"/>
      <point x="42" y="493"/>
      <point x="85" y="536"/>
      <point x="136" y="536" type="curve" smooth="yes"/>
      <point x="187" y="536"/>
      <point x="230" y="493"/>
    </contour>
    <contour>
      <point x="221" y="169" type="line"/>
      <point x="137" y="-126" type="line"/>
      <point x="43" y="-126" type="line"/>
      <point x="58" y="169" type="line"/>
    </contour>
  </outline>
</glyph>
<glyph name="equal" format="1">
  <advance width="613"/>
  <unicode hex="003D"/>
  <outline>
    <contour>
      <point x="533" y="398" type="line"/>
      <point x="80" y="398" type="line"/>
      <point x="80" y="527" type="line"/>
      <point x="533" y="527" type="line"/>
    </contour>
    <contour>
      <point x="533" y="161" type="line"/>
      <point x="80" y="161" type="line"/>
      <point x="80" y="290" type="line"/>
      <point x="533" y="290" type="line"/>
    </contour>
  </outline>
</glyph>
<glyph name="greater" format="1">
  <advance width="450"/>
  <unicode hex="003E"/>
  <outline>
    <contour>
      <point x="393" y="297" type="line"/>
      <point x="62" y="28" type="line"/>
      <point x="62" y="200" type="line"/>
      <point x="249" y="343" type="line"/>
      <point x="62" y="487" type="line"/>
      <point x="62" y="660" type="line"/>
      <point x="393" y="391" type="line"/>
    </contour>
  </outline>
</glyph>
<glyph name="question" format="1">
  <advance width="584"/>
  <unicode hex="003F"/>
  <outline>
    <contour>
      <point x="546" y="507" type="curve" smooth="yes"/>
      <point x="546" y="414"/>
      <point x="493" y="365"/>
      <point x="445" y="342" type="curve" smooth="yes"/>
      <point x="361" y="302"/>
      <point x="340" y="279"/>
      <point x="337" y="220" type="curve"/>
      <point x="200" y="220" type="line"/>
      <point x="200" y="315"/>
      <point x="228" y="374"/>
      <point x="341" y="426" type="curve" smooth="yes"/>
      <point x="391" y="449"/>
      <point x="406" y="465"/>
      <point x="406" y="501" type="curve" smooth="yes"/>
      <point x="406" y="547"/>
      <point x="372" y="574"/>
      <point x="287" y="574" type="curve" smooth="yes"/>
      <point x="211" y="574"/>
      <point x="157" y="538"/>
      <point x="112" y="490" type="curve"/>
      <point x="22" y="595" type="line"/>
      <point x="83" y="659"/>
      <point x="170" y="711"/>
      <point x="287" y="711" type="curve" smooth="yes"/>
      <point x="440" y="711"/>
      <point x="546" y="646"/>
    </contour>
    <contour>
      <point x="354" y="74" type="curve" smooth="yes"/>
      <point x="354" y="28"/>
      <point x="315" y="-11"/>
      <point x="269" y="-11" type="curve" smooth="yes"/>
      <point x="223" y="-11"/>
      <point x="184" y="28"/>
      <point x="184" y="74" type="curve" smooth="yes"/>
      <point x="184" y="120"/>
      <point x="223" y="159"/>
      <point x="269" y="159" type="curve" smooth="yes"/>
      <point x="315" y="159"/>
      <point x="354" y="120"/>
    </contour>
  </outline>
</glyph>
<glyph name="A" format="1">
  <advance width="750"/>
  <unicode hex="0041"/>
  <outline>
    <contour>
      <point x="710" y="0" type="line"/>
      <point x="556" y="0" type="line"/>
      <point x="501" y="156" type="line"/>
      <point x="245" y="156" type="line"/>
      <point x="190" y="0" type="line"/>
      <point x="40" y="0" type="line"/>
      <point x="308" y="700" type="line"/>
      <point x="444" y="700" type="line"/>
    </contour>
    <contour>
      <point x="453" y="289" type="line"/>
      <point x="408" y="416" type="line" smooth="yes"/>
      <point x="394" y="457"/>
      <point x="380" y="499"/>
      <point x="373" y="525" type="curve"/>
      <point x="366" y="499"/>
      <point x="352" y="457"/>
      <point x="338" y="416" type="curve" smooth="yes"/>
      <point x="293" y="289" type="line"/>
    </contour>
  </outline>
</glyph>
<glyph name="B" format="1">
  <advance width="710"/>
  <unicode hex="0042"/>
  <outline>
    <contour>
      <point x="657" y="226" type="curve" smooth="yes"/>
      <point x="657" y="79"/>
      <point x="558" y="0"/>
      <point x="408" y="0" type="curve" smooth="yes"/>
      <point x="90" y="0" type="line"/>
      <point x="90" y="700" type="line"/>
      <point x="411" y="700" type="line" smooth="yes"/>
      <point x="547" y="700"/>
      <point x="633" y="635"/>
      <point x="633" y="515" type="curve" smooth="yes"/>
      <point x="633" y="455"/>
      <point x="605" y="407"/>
      <point x="559" y="379" type="curve"/>
      <point x="615" y="354"/>
      <point x="657" y="303"/>
    </contour>
    <contour>
      <point x="491" y="504" type="curve" smooth="yes"/>
      <point x="491" y="548"/>
      <point x="466" y="571"/>
      <point x="405" y="571" type="curve" smooth="yes"/>
      <point x="227" y="571" type="line"/>
      <point x="227" y="438" type="line"/>
      <point x="412" y="438" type="line" smooth="yes"/>
      <point x="470" y="438"/>
      <point x="491" y="465"/>
    </contour>
    <contour>
      <point x="513" y="224" type="curve" smooth="yes"/>
      <point x="513" y="284"/>
      <point x="481" y="314"/>
      <point x="413" y="314" type="curve" smooth="yes"/>
      <point x="227" y="314" type="line"/>
      <point x="227" y="133" type="line"/>
      <point x="413" y="133" type="line" smooth="yes"/>
      <point x="481" y="133"/>
      <point x="513" y="169"/>
    </contour>
  </outline>
</glyph>
<glyph name="C" format="1">
  <advance width="670"/>
  <unicode hex="0043"/>
  <outline>
    <contour>
      <point x="620" y="556" type="curve"/>
      <point x="490" y="496" type="line"/>
      <point x="465" y="544"/>
      <point x="425" y="572"/>
      <point x="362" y="572" type="curve" smooth="yes"/>
      <point x="257" y="572"/>
      <point x="197" y="480"/>
      <point x="197" y="350" type="curve" smooth="yes"/>
      <point x="197" y="224"/>
      <point x="258" y="128"/>
      <point x="363" y="128" type="curve" smooth="yes"/>
      <point x="426" y="128"/>
      <point x="463" y="155"/>
      <point x="500" y="217" type="curve"/>
      <point x="618" y="147" type="line"/>
      <point x="570" y="48"/>
      <point x="486" y="-11"/>
      <point x="359" y="-11" type="curve" smooth="yes"/>
      <point x="176" y="-11"/>
      <point x="53" y="129"/>
      <point x="53" y="350" type="curve" smooth="yes"/>
      <point x="53" y="563"/>
      <point x="181" y="711"/>
      <point x="364" y="711" type="curve" smooth="yes"/>
      <point x="496" y="711"/>
      <point x="576" y="647"/>
    </contour>
  </outline>
</glyph>
<glyph name="D" format="1">
  <advance width="707"/>
  <unicode hex="0044"/>
  <outline>
    <contour>
      <point x="657" y="350" type="curve" smooth="yes"/>
      <point x="657" y="104"/>
      <point x="479" y="0"/>
      <point x="299" y="0" type="curve" smooth="yes"/>
      <point x="90" y="0" type="line"/>
      <point x="90" y="700" type="line"/>
      <point x="309" y="700" type="line" smooth="yes"/>
      <point x="509" y="700"/>
      <point x="657" y="606"/>
    </contour>
    <contour>
      <point x="513" y="350" type="curve" smooth="yes"/>
      <point x="513" y="493"/>
      <point x="452" y="564"/>
      <point x="304" y="564" type="curve" smooth="yes"/>
      <point x="230" y="564" type="line"/>
      <point x="230" y="136" type="line"/>
      <point x="299" y="136" type="line" smooth="yes"/>
      <point x="446" y="136"/>
      <point x="513" y="222"/>
    </contour>
  </outline>
</glyph>
<glyph name="E" format="1">
  <advance width="650"/>
  <unicode hex="0045"/>
  <outline>
    <contour>
      <point x="591" y="0" type="line"/>
      <point x="90" y="0" type="line"/>
      <point x="90" y="700" type="line"/>
      <point x="576" y="700" type="line"/>
      <point x="576" y="563" type="line"/>
      <point x="230" y="563" type="line"/>
      <point x="230" y="442" type="line"/>
      <point x="431" y="442" type="line"/>
      <point x="431" y="306" type="line"/>
      <point x="230" y="306" type="line"/>
      <point x="230" y="137" type="line"/>
      <point x="591" y="137" type="line"/>
    </contour>
  </outline>
</glyph>
<glyph name="F" format="1">
  <advance width="625"/>
  <unicode hex="0046"/>
  <outline>
    <contour>
      <point x="591" y="563" type="line"/>
      <point x="230" y="563" type="line"/>
      <point x="230" y="431" type="line"/>
      <point x="441" y="431" type="line"/>
      <point x="441" y="295" type="line"/>
      <point x="230" y="295" type="line"/>
      <point x="230" y="0" type="line"/>
      <point x="90" y="0" type="line"/>
      <point x="90" y="700" type="line"/>
      <point x="591" y="700" type="line"/>
    </contour>
  </outline>
</glyph>
<glyph name="G" format="1">
  <advance width="698"/>
  <unicode hex="0047"/>
  <outline>
    <contour>
      <point x="640" y="271" type="line" smooth="yes"/>
      <point x="640" y="91"/>
      <point x="521" y="-11"/>
      <point x="359" y="-11" type="curve" smooth="yes"/>
      <point x="176" y="-11"/>
      <point x="53" y="129"/>
      <point x="53" y="350" type="curve" smooth="yes"/>
      <point x="53" y="563"/>
      <point x="181" y="711"/>
      <point x="364" y="711" type="curve" smooth="yes"/>
      <point x="507" y="711"/>
      <point x="583" y="644"/>
      <point x="629" y="536" type="curve"/>
      <point x="496" y="481" type="line"/>
      <point x="470" y="533"/>
      <point x="438" y="572"/>
      <point x="362" y="572" type="curve" smooth="yes"/>
      <point x="257" y="572"/>
      <point x="197" y="480"/>
      <point x="197" y="350" type="curve" smooth="yes"/>
      <point x="197" y="221"/>
      <point x="258" y="126"/>
      <point x="363" y="126" type="curve" smooth="yes"/>
      <point x="459" y="126"/>
      <point x="492" y="171"/>
      <point x="500" y="232" type="curve"/>
      <point x="389" y="232" type="line"/>
      <point x="389" y="363" type="line"/>
      <point x="640" y="363" type="line"/>
    </contour>
  </outline>
</glyph>
<glyph name="H" format="1">
  <advance width="747"/>
  <unicode hex="0048"/>
  <outline>
    <contour>
      <point x="657" y="0" type="line"/>
      <point x="517" y="0" type="line"/>
      <point x="517" y="294" type="line"/>
      <point x="230" y="294" type="line"/>
      <point x="230" y="0" type="line"/>
      <point x="90" y="0" type="line"/>
      <point x="90" y="700" type="line"/>
      <point x="230" y="700" type="line"/>
      <point x="230" y="432" type="line"/>
      <point x="517" y="432" type="line"/>
      <point x="517" y="700" type="line"/>
      <point x="657" y="700" type="line"/>
    </contour>
  </outline>
</glyph>
<glyph name="I" format="1">
  <advance width="340"/>
  <unicode hex="0049"/>
  <outline>
    <contour>
      <point x="240" y="0" type="line"/>
      <point x="100" y="0" type="line"/>
      <point x="100" y="700" type="line"/>
      <point x="240" y="700" type="line"/>
    </contour>
  </outline>
</glyph>
<glyph name="J" format="1">
  <advance width="650"/>
  <unicode hex="004A"/>
  <outline>
    <contour>
      <point x="565" y="292" type="line" smooth="yes"/>
      <point x="565" y="109"/>
      <point x="483" y="-11"/>
      <point x="300" y="-11" type="curve" smooth="yes"/>
      <point x="160" y="-11"/>
      <point x="67" y="73"/>
      <point x="32" y="196" type="curve"/>
      <point x="169" y="233" type="line"/>
      <point x="196" y="162"/>
      <point x="232" y="128"/>
      <point x="300" y="128" type="curve" smooth="yes"/>
      <point x="386" y="128"/>
      <point x="425" y="183"/>
      <point x="425" y="288" type="curve" smooth="yes"/>
      <point x="425" y="700" type="line"/>
      <point x="565" y="700" type="line"/>
    </contour>
  </outline>
</glyph>
<glyph name="K" format="1">
  <advance width="720"/>
  <unicode hex="004B"/>
  <outline>
    <contour>
      <point x="700" y="0" type="line"/>
      <point x="532" y="0" type="line"/>
      <point x="342" y="338" type="line"/>
      <point x="230" y="206" type="line"/>
      <point x="230" y="0" type="line"/>
      <point x="90" y="0" type="line"/>
      <point x="90" y="700" type="line"/>
      <point x="230" y="700" type="line"/>
      <point x="230" y="501" type="line" smooth="yes"/>
      <point x="230" y="475"/>
      <point x="229" y="412"/>
      <point x="228" y="390" type="curve"/>
      <point x="238" y="406"/>
      <point x="264" y="438"/>
      <point x="283" y="461" type="curve" smooth="yes"/>
      <point x="479" y="700" type="line"/>
      <point x="648" y="700" type="line"/>
      <point x="443" y="458" type="line"/>
    </contour>
  </outline>
</glyph>
<glyph name="L" format="1">
  <advance width="620"/>
  <unicode hex="004C"/>
  <outline>
    <contour>
      <point x="581" y="0" type="line"/>
      <point x="90" y="0" type="line"/>
      <point x="90" y="700" type="line"/>
      <point x="230" y="700" type="line"/>
      <point x="230" y="138" type="line"/>
      <point x="581" y="138" type="line"/>
    </contour>
  </outline>
</glyph>
<glyph name="M" format="1">
  <advance width="835"/>
  <unicode hex="004D"/>
  <outline>
    <contour>
      <point x="745" y="0" type="line"/>
      <point x="605" y="0" type="line"/>
      <point x="605" y="257" type="line" smooth="yes"/>
      <point x="605" y="295"/>
      <point x="607" y="384"/>
      <point x="607" y="411" type="curve"/>
      <point x="597" y="385"/>
      <point x="576" y="335"/>
      <point x="558" y="295" type="curve" smooth="yes"/>
      <point x="416" y="-16" type="line"/>
      <point x="274" y="295" type="line" smooth="yes"/>
      <point x="256" y="335"/>
      <point x="235" y="385"/>
      <point x="225" y="411" type="curve"/>
      <point x="225" y="384"/>
      <point x="227" y="295"/>
      <point x="227" y="257" type="curve" smooth="yes"/>
      <point x="227" y="0" type="line"/>
      <point x="90" y="0" type="line"/>
      <point x="90" y="700" type="line"/>
      <point x="225" y="700" type="line"/>
      <point x="371" y="383" type="line" smooth="yes"/>
      <point x="389" y="344"/>
      <point x="410" y="291"/>
      <point x="419" y="266" type="curve"/>
      <point x="428" y="292"/>
      <point x="448" y="343"/>
      <point x="466" y="383" type="curve" smooth="yes"/>
      <point x="607" y="700" type="line"/>
      <point x="745" y="700" type="line"/>
    </contour>
  </outline>
</glyph>
<glyph name="N" format="1">
  <advance width="747"/>
  <unicode hex="004E"/>
  <outline>
    <contour>
      <point x="657" y="0" type="line"/>
      <point x="532" y="0" type="line"/>
      <point x="275" y="382" type="line" smooth="yes"/>
      <point x="258" y="408"/>
      <point x="235" y="443"/>
      <point x="226" y="461" type="curve"/>
      <point x="226" y="435"/>
      <point x="228" y="347"/>
      <point x="228" y="308" type="curve" smooth="yes"/>
      <point x="228" y="0" type="line"/>
      <point x="90" y="0" type="line"/>
      <point x="90" y="700" type="line"/>
      <point x="224" y="700" type="line"/>
      <point x="472" y="330" type="line" smooth="yes"/>
      <point x="489" y="304"/>
      <point x="512" y="269"/>
      <point x="521" y="251" type="curve"/>
      <point x="521" y="277"/>
      <point x="519" y="365"/>
      <point x="519" y="404" type="curve" smooth="yes"/>
      <point x="519" y="700" type="line"/>
      <point x="657" y="700" type="line"/>
    </contour>
  </outline>
</glyph>
<glyph name="O" format="1">
  <advance width="719"/>
  <unicode hex="004F"/>
  <outline>
    <contour>
      <point x="668" y="351" type="curve" smooth="yes"/>
      <point x="668" y="125"/>
      <point x="541" y="-11"/>
      <point x="359" y="-11" type="curve" smooth="yes"/>
      <point x="176" y="-11"/>
      <point x="51" y="123"/>
      <point x="51" y="349" type="curve" smooth="yes"/>
      <point x="51" y="575"/>
      <point x="178" y="711"/>
      <point x="361" y="711" type="curve" smooth="yes"/>
      <point x="543" y="711"/>
      <point x="668" y="577"/>
    </contour>
    <contour>
      <point x="524" y="349" type="curve" smooth="yes"/>
      <point x="524" y="491"/>
      <point x="456" y="572"/>
      <point x="358" y="572" type="curve" smooth="yes"/>
      <point x="260" y="572"/>
      <point x="195" y="493"/>
      <point x="195" y="351" type="curve" smooth="yes"/>
      <point x="195" y="209"/>
      <point x="263" y="128"/>
      <point x="361" y="128" type="curve" smooth="yes"/>
      <point x="459" y="128"/>
      <point x="524" y="207"/>
    </contour>
  </outline>
</glyph>
<glyph name="P" format="1">
  <advance width="680"/>
  <unicode hex="0050"/>
  <outline>
    <contour>
      <point x="637" y="478" type="curve" smooth="yes"/>
      <point x="637" y="316"/>
      <point x="529" y="248"/>
      <point x="384" y="248" type="curve" smooth="yes"/>
      <point x="230" y="248" type="line"/>
      <point x="230" y="0" type="line"/>
      <point x="90" y="0" type="line"/>
      <point x="90" y="700" type="line"/>
      <point x="396" y="700" type="line" smooth="yes"/>
      <point x="528" y="700"/>
      <point x="637" y="627"/>
    </contour>
    <contour>
      <point x="493" y="475" type="curve" smooth="yes"/>
      <point x="493" y="536"/>
      <point x="453" y="564"/>
      <point x="391" y="564" type="curve" smooth="yes"/>
      <point x="230" y="564" type="line"/>
      <point x="230" y="384" type="line"/>
      <point x="393" y="384" type="line" smooth="yes"/>
      <point x="458" y="384"/>
      <point x="493" y="414"/>
    </contour>
  </outline>
</glyph>
<glyph name="Q" format="1">
  <advance width="714"/>
  <unicode hex="0051"/>
  <outline>
    <contour>
      <point x="661" y="350" type="curve" smooth="yes"/>
      <point x="661" y="230"/>
      <point x="627" y="144"/>
      <point x="566" y="81" type="curve"/>
      <point x="618" y="5" type="line"/>
      <point x="511" y="-65" type="line"/>
      <point x="461" y="8" type="line"/>
      <point x="429" y="-5"/>
      <point x="396" y="-11"/>
      <point x="357" y="-11" type="curve" smooth="yes"/>
      <point x="166" y="-11"/>
      <point x="53" y="137"/>
      <point x="53" y="350" type="curve" smooth="yes"/>
      <point x="53" y="563"/>
      <point x="166" y="711"/>
      <point x="357" y="711" type="curve" smooth="yes"/>
      <point x="548" y="711"/>
      <point x="661" y="563"/>
    </contour>
    <contour>
      <point x="517" y="350" type="curve" smooth="yes"/>
      <point x="517" y="475"/>
      <point x="470" y="572"/>
      <point x="357" y="572" type="curve" smooth="yes"/>
      <point x="244" y="572"/>
      <point x="197" y="475"/>
      <point x="197" y="350" type="curve" smooth="yes"/>
      <point x="197" y="222"/>
      <point x="247" y="121"/>
      <point x="360" y="121" type="curve" smooth="yes"/>
      <point x="368" y="121"/>
      <point x="376" y="122"/>
      <point x="383" y="123" type="curve"/>
      <point x="336" y="193" type="line"/>
      <point x="443" y="263" type="line"/>
      <point x="488" y="196" type="line"/>
      <point x="510" y="235"/>
      <point x="517" y="291"/>
    </contour>
  </outline>
</glyph>
<glyph name="R" format="1">
  <advance width="714"/>
  <unicode hex="0052"/>
  <outline>
    <contour>
      <point x="657" y="0" type="line"/>
      <point x="496" y="0" type="line"/>
      <point x="371" y="252" type="line"/>
      <point x="230" y="252" type="line"/>
      <point x="230" y="0" type="line"/>
      <point x="90" y="0" type="line"/>
      <point x="90" y="700" type="line"/>
      <point x="416" y="700" type="line" smooth="yes"/>
      <point x="548" y="700"/>
      <point x="657" y="627"/>
      <point x="657" y="478" type="curve" smooth="yes"/>
      <point x="657" y="373"/>
      <point x="612" y="307"/>
      <point x="523" y="272" type="curve"/>
    </contour>
    <contour>
      <point x="513" y="475" type="curve" smooth="yes"/>
      <point x="513" y="538"/>
      <point x="475" y="564"/>
      <point x="413" y="564" type="curve" smooth="yes"/>
      <point x="230" y="564" type="line"/>
      <point x="230" y="384" type="line"/>
      <point x="413" y="384" type="line" smooth="yes"/>
      <point x="478" y="384"/>
      <point x="513" y="414"/>
    </contour>
  </outline>
</glyph>
<glyph name="S" format="1">
  <advance width="661"/>
  <unicode hex="0053"/>
  <outline>
    <contour>
      <point x="603" y="212" type="curve" smooth="yes"/>
      <point x="603" y="79"/>
      <point x="519" y="-11"/>
      <point x="328" y="-11" type="curve" smooth="yes"/>
      <point x="211" y="-11"/>
      <point x="109" y="38"/>
      <point x="56" y="116" type="curve"/>
      <point x="157" y="206" type="line"/>
      <point x="206" y="149"/>
      <point x="269" y="126"/>
      <point x="336" y="126" type="curve" smooth="yes"/>
      <point x="419" y="126"/>
      <point x="458" y="149"/>
      <point x="458" y="202" type="curve" smooth="yes"/>
      <point x="458" y="247"/>
      <point x="434" y="267"/>
      <point x="302" y="297" type="curve" smooth="yes"/>
      <point x="173" y="327"/>
      <point x="83" y="368"/>
      <point x="83" y="506" type="curve" smooth="yes"/>
      <point x="83" y="633"/>
      <point x="195" y="711"/>
      <point x="333" y="711" type="curve" smooth="yes"/>
      <point x="442" y="711"/>
      <point x="522" y="670"/>
      <point x="588" y="601" type="curve"/>
      <point x="487" y="503" type="line"/>
      <point x="442" y="549"/>
      <point x="392" y="575"/>
      <point x="328" y="575" type="curve" smooth="yes"/>
      <point x="253" y="575"/>
      <point x="228" y="543"/>
      <point x="228" y="512" type="curve" smooth="yes"/>
      <point x="228" y="468"/>
      <point x="258" y="454"/>
      <point x="369" y="428" type="curve" smooth="yes"/>
      <point x="480" y="402"/>
      <point x="603" y="364"/>
    </contour>
  </outline>
</glyph>
<glyph name="T" format="1">
  <advance width="632"/>
  <unicode hex="0054"/>
  <outline>
    <contour>
      <point x="587" y="562" type="line"/>
      <point x="386" y="562" type="line"/>
      <point x="386" y="0" type="line"/>
      <point x="246" y="0" type="line"/>
      <point x="246" y="562" type="line"/>
      <point x="45" y="562" type="line"/>
      <point x="45" y="700" type="line"/>
      <point x="587" y="700" type="line"/>
    </contour>
  </outline>
</glyph>
<glyph name="U" format="1">
  <advance width="737"/>
  <unicode hex="0055"/>
  <outline>
    <contour>
      <point x="652" y="309" type="line" smooth="yes"/>
      <point x="652" y="106"/>
      <point x="546" y="-11"/>
      <point x="368" y="-11" type="curve" smooth="yes"/>
      <point x="199" y="-11"/>
      <point x="85" y="103"/>
      <point x="85" y="307" type="curve" smooth="yes"/>
      <point x="85" y="700" type="line"/>
      <point x="225" y="700" type="line"/>
      <point x="225" y="309" type="line" smooth="yes"/>
      <point x="225" y="197"/>
      <point x="279" y="126"/>
      <point x="368" y="126" type="curve" smooth="yes"/>
      <point x="457" y="126"/>
      <point x="512" y="195"/>
      <point x="512" y="307" type="curve" smooth="yes"/>
      <point x="512" y="700" type="line"/>
      <point x="652" y="700" type="line"/>
    </contour>
  </outline>
</glyph>
<glyph name="V" format="1">
  <advance width="714"/>
  <unicode hex="0056"/>
  <outline>
    <contour>
      <point x="674" y="700" type="line"/>
      <point x="425" y="0" type="line"/>
      <point x="289" y="0" type="line"/>
      <point x="40" y="700" type="line"/>
      <point x="195" y="700" type="line"/>
      <point x="327" y="295" type="line" smooth="yes"/>
      <point x="340" y="256"/>
      <point x="354" y="205"/>
      <point x="360" y="180" type="curve"/>
      <point x="366" y="206"/>
      <point x="379" y="254"/>
      <point x="392" y="295" type="curve" smooth="yes"/>
      <point x="521" y="700" type="line"/>
    </contour>
  </outline>
</glyph>
<glyph name="W" format="1">
  <advance width="881"/>
  <unicode hex="0057"/>
  <outline>
    <contour>
      <point x="831" y="700" type="line"/>
      <point x="685" y="0" type="line"/>
      <point x="548" y="0" type="line"/>
      <point x="462" y="360" type="line" smooth="yes"/>
      <point x="452" y="402"/>
      <point x="442" y="454"/>
      <point x="438" y="480" type="curve"/>
      <point x="435" y="454"/>
      <point x="425" y="401"/>
      <point x="415" y="360" type="curve" smooth="yes"/>
      <point x="327" y="0" type="line"/>
      <point x="196" y="0" type="line"/>
      <point x="50" y="700" type="line"/>
      <point x="196" y="700" type="line"/>
      <point x="257" y="359" type="line" smooth="yes"/>
      <point x="263" y="325"/>
      <point x="271" y="273"/>
      <point x="274" y="244" type="curve"/>
      <point x="279" y="273"/>
      <point x="290" y="325"/>
      <point x="298" y="359" type="curve" smooth="yes"/>
      <point x="380" y="700" type="line"/>
      <point x="502" y="700" type="line"/>
      <point x="585" y="359" type="line" smooth="yes"/>
      <point x="593" y="325"/>
      <point x="604" y="273"/>
      <point x="609" y="244" type="curve"/>
      <point x="612" y="273"/>
      <point x="620" y="326"/>
      <point x="626" y="359" type="curve" smooth="yes"/>
      <point x="687" y="700" type="line"/>
    </contour>
  </outline>
</glyph>
<glyph name="X" format="1">
  <advance width="702"/>
  <unicode hex="0058"/>
  <outline>
    <contour>
      <point x="657" y="0" type="line"/>
      <point x="490" y="0" type="line"/>
      <point x="427" y="106" type="line" smooth="yes"/>
      <point x="402" y="148"/>
      <point x="364" y="217"/>
      <point x="351" y="243" type="curve"/>
      <point x="339" y="217"/>
      <point x="301" y="150"/>
      <point x="275" y="106" type="curve" smooth="yes"/>
      <point x="212" y="0" type="line"/>
      <point x="45" y="0" type="line"/>
      <point x="267" y="358" type="line"/>
      <point x="55" y="700" type="line"/>
      <point x="222" y="700" type="line"/>
      <point x="275" y="610" type="line" smooth="yes"/>
      <point x="300" y="568"/>
      <point x="338" y="499"/>
      <point x="351" y="473" type="curve"/>
      <point x="364" y="499"/>
      <point x="401" y="566"/>
      <point x="427" y="610" type="curve" smooth="yes"/>
      <point x="480" y="700" type="line"/>
      <point x="647" y="700" type="line"/>
      <point x="434" y="358" type="line"/>
    </contour>
  </outline>
</glyph>
<glyph name="Y" format="1">
  <advance width="714"/>
  <unicode hex="0059"/>
  <outline>
    <contour>
      <point x="692" y="700" type="line"/>
      <point x="427" y="277" type="line"/>
      <point x="427" y="0" type="line"/>
      <point x="287" y="0" type="line"/>
      <point x="287" y="274" type="line"/>
      <point x="22" y="700" type="line"/>
      <point x="183" y="700" type="line"/>
      <point x="282" y="534" type="line" smooth="yes"/>
      <point x="307" y="492"/>
      <point x="345" y="423"/>
      <point x="358" y="397" type="curve"/>
      <point x="371" y="423"/>
      <point x="408" y="490"/>
      <point x="434" y="534" type="curve" smooth="yes"/>
      <point x="533" y="700" type="line"/>
    </contour>
  </outline>
</glyph>
<glyph name="Z" format="1">
  <advance width="688"/>
  <unicode hex="005A"/>
  <outline>
    <contour>
      <point x="620" y="0" type="line"/>
      <point x="68" y="0" type="line"/>
      <point x="68" y="124" type="line"/>
      <point x="369" y="483" type="line" smooth="yes"/>
      <point x="391" y="510"/>
      <point x="431" y="556"/>
      <point x="449" y="574" type="curve"/>
      <point x="421" y="573"/>
      <point x="348" y="572"/>
      <point x="307" y="572" type="curve" smooth="yes"/>
      <point x="88" y="572" type="line"/>
      <point x="88" y="700" type="line"/>
      <point x="615" y="700" type="line"/>
      <point x="615" y="576" type="line"/>
      <point x="317" y="217" type="line" smooth="yes"/>
      <point x="295" y="190"/>
      <point x="255" y="144"/>
      <point x="237" y="126" type="curve"/>
      <point x="265" y="127"/>
      <point x="338" y="128"/>
      <point x="379" y="128" type="curve" smooth="yes"/>
      <point x="620" y="128" type="line"/>
    </contour>
  </outline>
</glyph>
<glyph name="bracketleft" format="1">
  <advance width="415"/>
  <unicode hex="005B"/>
  <outline>
    <contour>
      <point x="352" y="-110" type="line"/>
      <point x="95" y="-110" type="line"/>
      <point x="95" y="700" type="line"/>
      <point x="352" y="700" type="line"/>
      <point x="352" y="590" type="line"/>
      <point x="230" y="590" type="line"/>
      <point x="230" y="0" type="line"/>
      <point x="352" y="0" type="line"/>
    </contour>
  </outline>
</glyph>
<glyph name="backslash" format="1">
  <advance width="470"/>
  <unicode hex="005C"/>
  <outline>
    <contour>
      <point x="466" y="-90" type="line"/>
      <point x="330" y="-90" type="line"/>
      <point x="4" y="790" type="line"/>
      <point x="140" y="790" type="line"/>
    </contour>
  </outline>
</glyph>
<glyph name="bracketright" format="1">
  <advance width="415"/>
  <unicode hex="005D"/>
  <outline>
    <contour>
      <point x="320" y="-110" type="line"/>
      <point x="63" y="-110" type="line"/>
      <point x="63" y="0" type="line"/>
      <point x="185" y="0" type="line"/>
      <point x="185" y="590" type="line"/>
      <point x="63" y="590" type="line"/>
      <point x="63" y="700" type="line"/>
      <point x="320" y="700" type="line"/>
    </contour>
  </outline>
</glyph>
<glyph name="grave" format="1">
  <advance width="500"/>
  <unicode hex="0060"/>
  <outline>
    <contour>
      <point x="362" y="595" type="line"/>
      <point x="245" y="595" type="line"/>
      <point x="100" y="755" type="line"/>
      <point x="275" y="755" type="line"/>
    </contour>
  </outline>
</glyph>
<glyph name="a" format="1">
  <advance width="556"/>
  <unicode hex="0061"/>
  <outline>
    <contour>
      <point x="494" y="0" type="line"/>
      <point x="356" y="0" type="line"/>
      <point x="356" y="35" type="line"/>
      <point x="331" y="9"/>
      <point x="287" y="-11"/>
      <point x="238" y="-11" type="curve" smooth="yes"/>
      <point x="140" y="-11"/>
      <point x="42" y="49"/>
      <point x="42" y="176" type="curve" smooth="yes"/>
      <point x="42" y="292"/>
      <point x="136" y="350"/>
      <point x="255" y="350" type="curve" smooth="yes"/>
      <point x="303" y="350"/>
      <point x="334" y="340"/>
      <point x="356" y="329" type="curve"/>
      <point x="356" y="355" type="line" smooth="yes"/>
      <point x="356" y="392"/>
      <point x="331" y="422"/>
      <point x="281" y="422" type="curve" smooth="yes"/>
      <point x="218" y="422"/>
      <point x="185" y="413"/>
      <point x="137" y="387" type="curve"/>
      <point x="84" y="483" type="line"/>
      <point x="145" y="518"/>
      <point x="196" y="536"/>
      <point x="281" y="536" type="curve" smooth="yes"/>
      <point x="408" y="536"/>
      <point x="494" y="470"/>
      <point x="494" y="352" type="curve" smooth="yes"/>
    </contour>
    <contour>
      <point x="356" y="154" type="curve"/>
      <point x="356" y="220" type="line"/>
      <point x="332" y="235"/>
      <point x="309" y="242"/>
      <point x="260" y="242" type="curve" smooth="yes"/>
      <point x="208" y="242"/>
      <point x="180" y="218"/>
      <point x="180" y="176" type="curve" smooth="yes"/>
      <point x="180" y="139"/>
      <point x="201" y="106"/>
      <point x="260" y="106" type="curve" smooth="yes"/>
      <point x="305" y="106"/>
      <point x="341" y="129"/>
    </contour>
  </outline>
</glyph>
<glyph name="b" format="1">
  <advance width="562"/>
  <unicode hex="0062"/>
  <outline>
    <contour>
      <point x="520" y="256" type="curve" smooth="yes"/>
      <point x="520" y="99"/>
      <point x="446" y="-11"/>
      <point x="316" y="-11" type="curve" smooth="yes"/>
      <point x="270" y="-11"/>
      <point x="230" y="7"/>
      <point x="205" y="30" type="curve"/>
      <point x="205" y="0" type="line"/>
      <point x="67" y="0" type="line"/>
      <point x="67" y="660" type="line"/>
      <point x="205" y="729" type="line"/>
      <point x="205" y="492" type="line"/>
      <point x="231" y="515"/>
      <point x="266" y="536"/>
      <point x="316" y="536" type="curve" smooth="yes"/>
      <point x="428" y="536"/>
      <point x="520" y="452"/>
    </contour>
    <contour>
      <point x="380" y="253" type="curve" smooth="yes"/>
      <point x="380" y="361"/>
      <point x="344" y="406"/>
      <point x="290" y="406" type="curve" smooth="yes"/>
      <point x="247" y="406"/>
      <point x="225" y="388"/>
      <point x="205" y="362" type="curve"/>
      <point x="205" y="164" type="line"/>
      <point x="226" y="135"/>
      <point x="258" y="119"/>
      <point x="298" y="119" type="curve" smooth="yes"/>
      <point x="351" y="119"/>
      <point x="380" y="165"/>
    </contour>
  </outline>
</glyph>
<glyph name="c" format="1">
  <advance width="537"/>
  <unicode hex="0063"/>
  <outline>
    <contour>
      <point x="501" y="106" type="line"/>
      <point x="450" y="38"/>
      <point x="390" y="-11"/>
      <point x="286" y="-11" type="curve" smooth="yes"/>
      <point x="149" y="-11"/>
      <point x="40" y="101"/>
      <point x="40" y="262" type="curve" smooth="yes"/>
      <point x="40" y="423"/>
      <point x="146" y="536"/>
      <point x="292" y="536" type="curve" smooth="yes"/>
      <point x="392" y="536"/>
      <point x="456" y="487"/>
      <point x="500" y="420" type="curve"/>
      <point x="409" y="328" type="line"/>
      <point x="378" y="372"/>
      <point x="345" y="403"/>
      <point x="289" y="403" type="curve" smooth="yes"/>
      <point x="223" y="403"/>
      <point x="180" y="348"/>
      <point x="180" y="262" type="curve" smooth="yes"/>
      <point x="180" y="178"/>
      <point x="223" y="122"/>
      <point x="289" y="122" type="curve" smooth="yes"/>
      <point x="343" y="122"/>
      <point x="377" y="146"/>
      <point x="413" y="189" type="curve"/>
    </contour>
  </outline>
</glyph>
<glyph name="e" format="1">
  <advance width="538"/>
  <unicode hex="0065"/>
  <outline>
    <contour>
      <point x="495" y="262" type="curve" smooth="yes"/>
      <point x="495" y="242"/>
      <point x="494" y="228"/>
      <point x="493" y="218" type="curve"/>
      <point x="179" y="218" type="line"/>
      <point x="184" y="146"/>
      <point x="237" y="119"/>
      <point x="287" y="119" type="curve" smooth="yes"/>
      <point x="325" y="119"/>
      <point x="357" y="133"/>
      <point x="377" y="156" type="curve"/>
      <point x="475" y="74" type="line"/>
      <point x="433" y="20"/>
      <point x="357" y="-11"/>
      <point x="287" y="-11" type="curve" smooth="yes"/>
      <point x="136" y="-11"/>
      <point x="40" y="96"/>
      <point x="40" y="262" type="curve" smooth="yes"/>
      <point x="40" y="423"/>
      <point x="141" y="536"/>
      <point x="274" y="536" type="curve" smooth="yes"/>
      <point x="414" y="536"/>
      <point x="495" y="412"/>
    </contour>
    <contour>
      <point x="361" y="322" type="line"/>
      <point x="357" y="369"/>
      <point x="329" y="416"/>
      <point x="267" y="416" type="curve" smooth="yes"/>
      <point x="217" y="416"/>
      <point x="186" y="375"/>
      <point x="181" y="322" type="curve"/>
    </contour>
  </outline>
</glyph>
<glyph name="f" format="1">
  <advance width="370"/>
  <unicode hex="0066"/>
  <outline>
    <contour>
      <point x="338" y="600" type="line"/>
      <point x="324" y="607"/>
      <point x="310" y="611"/>
      <point x="290" y="611" type="curve" smooth="yes"/>
      <point x="249" y="611"/>
      <point x="239" y="598"/>
      <point x="239" y="569" type="curve" smooth="yes"/>
      <point x="239" y="525" type="line"/>
      <point x="328" y="525" type="line"/>
      <point x="328" y="395" type="line"/>
      <point x="239" y="395" type="line"/>
      <point x="239" y="0" type="line"/>
      <point x="101" y="0" type="line"/>
      <point x="101" y="395" type="line"/>
      <point x="38" y="395" type="line"/>
      <point x="38" y="525" type="line"/>
      <point x="101" y="525" type="line"/>
      <point x="101" y="588" type="line" smooth="yes"/>
      <point x="101" y="686"/>
      <point x="155" y="726"/>
      <point x="251" y="726" type="curve" smooth="yes"/>
      <point x="285" y="726"/>
      <point x="314" y="721"/>
      <point x="338" y="711" type="curve"/>
    </contour>
  </outline>
</glyph>
<glyph name="i" format="1">
  <advance width="282"/>
  <unicode hex="0069"/>
  <outline>
    <contour>
      <point x="220" y="647" type="curve" smooth="yes"/>
      <point x="220" y="604"/>
      <point x="184" y="568"/>
      <point x="141" y="568" type="curve" smooth="yes"/>
      <point x="98" y="568"/>
      <point x="62" y="604"/>
      <point x="62" y="647" type="curve" smooth="yes"/>
      <point x="62" y="690"/>
      <point x="98" y="726"/>
      <point x="141" y="726" type="curve" smooth="yes"/>
      <point x="184" y="726"/>
      <point x="220" y="690"/>
    </contour>
    <contour>
      <point x="210" y="0" type="line"/>
      <point x="72" y="0" type="line"/>
      <point x="72" y="525" type="line"/>
      <point x="210" y="525" type="line"/>
    </contour>
  </outline>
</glyph>
<glyph name="j" format="1">
  <advance width="282"/>
  <unicode hex="006A"/>
  <outline>
    <contour>
      <point x="220" y="647" type="curve" smooth="yes"/>
      <point x="220" y="604"/>
      <point x="184" y="568"/>
      <point x="141" y="568" type="curve" smooth="yes"/>
      <point x="98" y="568"/>
      <point x="62" y="604"/>
      <point x="62" y="647" type="curve" smooth="yes"/>
      <point x="62" y="690"/>
      <point x="98" y="726"/>
      <point x="141" y="726" type="curve" smooth="yes"/>
      <point x="184" y="726"/>
      <point x="220" y="690"/>
    </contour>
    <contour>
      <point x="210" y="39" type="line" smooth="yes"/>
      <point x="210" y="-108"/>
      <point x="165" y="-167"/>
      <point x="4" y="-193" type="curve"/>
      <point x="-44" y="-87" type="line"/>
      <point x="51" y="-69"/>
      <point x="72" y="-49"/>
      <point x="72" y="33" type="curve" smooth="yes"/>
      <point x="72" y="525" type="line"/>
      <point x="210" y="525" type="line"/>
    </contour>
  </outline>
</glyph>
<glyph name="k" format="1">
  <advance width="551"/>
  <unicode hex="006B"/>
  <outline>
    <contour>
      <point x="523" y="0" type="line"/>
      <point x="372" y="0" type="line"/>
      <point x="272" y="242" type="line"/>
      <point x="205" y="159" type="line"/>
      <point x="205" y="0" type="line"/>
      <point x="67" y="0" type="line"/>
      <point x="67" y="660" type="line"/>
      <point x="205" y="729" type="line"/>
      <point x="205" y="450" type="line" smooth="yes"/>
      <point x="205" y="418"/>
      <point x="204" y="364"/>
      <point x="203" y="338" type="curve"/>
      <point x="217" y="359"/>
      <point x="241" y="392"/>
      <point x="259" y="415" type="curve" smooth="yes"/>
      <point x="344" y="525" type="line"/>
      <point x="507" y="525" type="line"/>
      <point x="372" y="358" type="line"/>
    </contour>
  </outline>
</glyph>
<glyph name="l" format="1">
  <advance width="282"/>
  <unicode hex="006C"/>
  <outline>
    <contour>
      <point x="210" y="0" type="line"/>
      <point x="72" y="0" type="line"/>
      <point x="72" y="660" type="line"/>
      <point x="210" y="729" type="line"/>
    </contour>
  </outline>
</glyph>
<glyph name="m" format="1">
  <advance width="881"/>
  <unicode hex="006D"/>
  <outline>
    <contour>
      <point x="819" y="0" type="line"/>
      <point x="681" y="0" type="line"/>
      <point x="681" y="284" type="line" smooth="yes"/>
      <point x="681" y="378"/>
      <point x="654" y="406"/>
      <point x="597" y="406" type="curve" smooth="yes"/>
      <point x="540" y="406"/>
      <point x="512" y="378"/>
      <point x="512" y="287" type="curve" smooth="yes"/>
      <point x="512" y="0" type="line"/>
      <point x="374" y="0" type="line"/>
      <point x="374" y="284" type="line" smooth="yes"/>
      <point x="374" y="378"/>
      <point x="347" y="406"/>
      <point x="290" y="406" type="curve" smooth="yes"/>
      <point x="233" y="406"/>
      <point x="205" y="378"/>
      <point x="205" y="287" type="curve" smooth="yes"/>
      <point x="205" y="0" type="line"/>
      <point x="67" y="0" type="line"/>
      <point x="67" y="525" type="line"/>
      <point x="205" y="525" type="line"/>
      <point x="205" y="490" type="line"/>
      <point x="229" y="515"/>
      <point x="265" y="536"/>
      <point x="320" y="536" type="curve" smooth="yes"/>
      <point x="387" y="536"/>
      <point x="426" y="517"/>
      <point x="465" y="469" type="curve"/>
      <point x="501" y="506"/>
      <point x="545" y="536"/>
      <point x="632" y="536" type="curve" smooth="yes"/>
      <point x="766" y="536"/>
      <point x="819" y="444"/>
      <point x="819" y="296" type="curve" smooth="yes"/>
    </contour>
  </outline>
</glyph>
<glyph name="n" format="1">
  <advance width="584"/>
  <unicode hex="006E"/>
  <outline>
    <contour>
      <point x="522" y="0" type="line"/>
      <point x="384" y="0" type="line"/>
      <point x="384" y="284" type="line" smooth="yes"/>
      <point x="384" y="378"/>
      <point x="352" y="406"/>
      <point x="295" y="406" type="curve" smooth="yes"/>
      <point x="238" y="406"/>
      <point x="205" y="378"/>
      <point x="205" y="287" type="curve" smooth="yes"/>
      <point x="205" y="0" type="line"/>
      <point x="67" y="0" type="line"/>
      <point x="67" y="525" type="line"/>
      <point x="205" y="525" type="line"/>
      <point x="205" y="490" type="line"/>
      <point x="229" y="515"/>
      <point x="273" y="536"/>
      <point x="328" y="536" type="curve" smooth="yes"/>
      <point x="462" y="536"/>
      <point x="522" y="444"/>
      <point x="522" y="296" type="curve" smooth="yes"/>
    </contour>
  </outline>
</glyph>
<glyph name="o" format="1">
  <advance width="555"/>
  <unicode hex="006F"/>
  <outline>
    <contour>
      <point x="515" y="262" type="curve" smooth="yes"/>
      <point x="515" y="101"/>
      <point x="414" y="-11"/>
      <point x="277" y="-11" type="curve" smooth="yes"/>
      <point x="140" y="-11"/>
      <point x="40" y="101"/>
      <point x="40" y="262" type="curve" smooth="yes"/>
      <point x="40" y="423"/>
      <point x="140" y="536"/>
      <point x="277" y="536" type="curve" smooth="yes"/>
      <point x="414" y="536"/>
      <point x="515" y="423"/>
    </contour>
    <contour>
      <point x="375" y="262" type="curve" smooth="yes"/>
      <point x="375" y="342"/>
      <point x="343" y="403"/>
      <point x="277" y="403" type="curve" smooth="yes"/>
      <point x="211" y="403"/>
      <point x="180" y="343"/>
      <point x="180" y="262" type="curve" smooth="yes"/>
      <point x="180" y="181"/>
      <point x="211" y="122"/>
      <point x="277" y="122" type="curve" smooth="yes"/>
      <point x="343" y="122"/>
      <point x="375" y="189"/>
    </contour>
  </outline>
</glyph>
<glyph name="q" format="1">
  <advance width="562"/>
  <unicode hex="0071"/>
  <outline>
    <contour>
      <point x="493" y="-124" type="line"/>
      <point x="355" y="-193" type="line"/>
      <point x="355" y="33" type="line"/>
      <point x="329" y="10"/>
      <point x="294" y="-11"/>
      <point x="244" y="-11" type="curve" smooth="yes"/>
      <point x="132" y="-11"/>
      <point x="40" y="73"/>
      <point x="40" y="269" type="curve" smooth="yes"/>
      <point x="40" y="426"/>
      <point x="114" y="536"/>
      <point x="244" y="536" type="curve" smooth="yes"/>
      <point x="290" y="536"/>
      <point x="330" y="518"/>
      <point x="355" y="495" type="curve"/>
      <point x="355" y="525" type="line"/>
      <point x="493" y="525" type="line"/>
    </contour>
    <contour>
      <point x="355" y="163" type="curve"/>
      <point x="355" y="361" type="line"/>
      <point x="334" y="390"/>
      <point x="302" y="406"/>
      <point x="262" y="406" type="curve" smooth="yes"/>
      <point x="209" y="406"/>
      <point x="180" y="360"/>
      <point x="180" y="272" type="curve" smooth="yes"/>
      <point x="180" y="164"/>
      <point x="216" y="119"/>
      <point x="270" y="119" type="curve" smooth="yes"/>
      <point x="313" y="119"/>
      <point x="335" y="137"/>
    </contour>
  </outline>
</glyph>
<glyph name="r" format="1">
  <advance width="428"/>
  <unicode hex="0072"/>
  <outline>
    <contour>
      <point x="410" y="499" type="curve"/>
      <point x="374" y="364" type="line"/>
      <point x="352" y="384"/>
      <point x="325" y="398"/>
      <point x="294" y="398" type="curve" smooth="yes"/>
      <point x="240" y="398"/>
      <point x="205" y="375"/>
      <point x="205" y="284" type="curve" smooth="yes"/>
      <point x="205" y="0" type="line"/>
      <point x="67" y="0" type="line"/>
      <point x="67" y="525" type="line"/>
      <point x="205" y="525" type="line"/>
      <point x="205" y="490" type="line"/>
      <point x="229" y="515"/>
      <point x="264" y="536"/>
      <point x="313" y="536" type="curve" smooth="yes"/>
      <point x="358" y="536"/>
      <point x="392" y="518"/>
    </contour>
  </outline>
</glyph>
<glyph name="s" format="1">
  <advance width="537"/>
  <unicode hex="0073"/>
  <outline>
    <contour>
      <point x="482" y="153" type="curve" smooth="yes"/>
      <point x="482" y="32"/>
      <point x="386" y="-11"/>
      <point x="268" y="-11" type="curve" smooth="yes"/>
      <point x="185" y="-11"/>
      <point x="104" y="13"/>
      <point x="48" y="50" type="curve"/>
      <point x="94" y="155" type="line"/>
      <point x="150" y="124"/>
      <point x="209" y="107"/>
      <point x="276" y="107" type="curve" smooth="yes"/>
      <point x="330" y="107"/>
      <point x="346" y="120"/>
      <point x="346" y="147" type="curve" smooth="yes"/>
      <point x="346" y="171"/>
      <point x="327" y="183"/>
      <point x="269" y="200" type="curve" smooth="yes"/>
      <point x="143" y="238"/>
      <point x="62" y="269"/>
      <point x="62" y="380" type="curve" smooth="yes"/>
      <point x="62" y="489"/>
      <point x="149" y="536"/>
      <point x="272" y="536" type="curve" smooth="yes"/>
      <point x="338" y="536"/>
      <point x="410" y="516"/>
      <point x="466" y="485" type="curve"/>
      <point x="422" y="376" type="line"/>
      <point x="370" y="404"/>
      <point x="313" y="418"/>
      <point x="269" y="418" type="curve" smooth="yes"/>
      <point x="213" y="418"/>
      <point x="198" y="407"/>
      <point x="198" y="384" type="curve" smooth="yes"/>
      <point x="198" y="362"/>
      <point x="214" y="353"/>
      <point x="307" y="323" type="curve" smooth="yes"/>
      <point x="401" y="292"/>
      <point x="482" y="258"/>
    </contour>
  </outline>
</glyph>
<glyph name="t" format="1">
  <advance width="442"/>
  <unicode hex="0074"/>
  <outline>
    <contour>
      <point x="380" y="161" type="curve"/>
      <point x="360" y="21" type="line"/>
      <point x="337" y="3"/>
      <point x="296" y="-11"/>
      <point x="253" y="-11" type="curve" smooth="yes"/>
      <point x="168" y="-11"/>
      <point x="113" y="55"/>
      <point x="113" y="147" type="curve" smooth="yes"/>
      <point x="113" y="395" type="line"/>
      <point x="25" y="395" type="line"/>
      <point x="25" y="525" type="line"/>
      <point x="113" y="525" type="line"/>
      <point x="113" y="660" type="line"/>
      <point x="251" y="729" type="line"/>
      <point x="251" y="525" type="line"/>
      <point x="377" y="525" type="line"/>
      <point x="377" y="395" type="line"/>
      <point x="251" y="395" type="line"/>
      <point x="251" y="184" type="line" smooth="yes"/>
      <point x="251" y="134"/>
      <point x="269" y="121"/>
      <point x="302" y="121" type="curve" smooth="yes"/>
      <point x="327" y="121"/>
      <point x="346" y="132"/>
    </contour>
  </outline>
</glyph>
<glyph name="u" format="1">
  <advance width="584"/>
  <unicode hex="0075"/>
  <outline>
    <contour>
      <point x="517" y="0" type="line"/>
      <point x="379" y="0" type="line"/>
      <point x="379" y="35" type="line"/>
      <point x="355" y="10"/>
      <point x="311" y="-11"/>
      <point x="256" y="-11" type="curve" smooth="yes"/>
      <point x="122" y="-11"/>
      <point x="62" y="81"/>
      <point x="62" y="229" type="curve" smooth="yes"/>
      <point x="62" y="525" type="line"/>
      <point x="200" y="525" type="line"/>
      <point x="200" y="241" type="line" smooth="yes"/>
      <point x="200" y="147"/>
      <point x="232" y="119"/>
      <point x="289" y="119" type="curve" smooth="yes"/>
      <point x="346" y="119"/>
      <point x="379" y="147"/>
      <point x="379" y="238" type="curve" smooth="yes"/>
      <point x="379" y="525" type="line"/>
      <point x="517" y="525" type="line"/>
    </contour>
  </outline>
</glyph>
<glyph name="v" format="1">
  <advance width="570"/>
  <unicode hex="0076"/>
  <outline>
    <contour>
      <point x="545" y="525" type="line"/>
      <point x="356" y="0" type="line"/>
      <point x="214" y="0" type="line"/>
      <point x="25" y="525" type="line"/>
      <point x="177" y="525" type="line"/>
      <point x="254" y="282" type="line" smooth="yes"/>
      <point x="267" y="242"/>
      <point x="281" y="192"/>
      <point x="287" y="167" type="curve"/>
      <point x="293" y="193"/>
      <point x="307" y="241"/>
      <point x="320" y="282" type="curve" smooth="yes"/>
      <point x="397" y="525" type="line"/>
    </contour>
  </outline>
</glyph>
<glyph name="w" format="1">
  <advance width="742"/>
  <unicode hex="0077"/>
  <outline>
    <contour>
      <point x="717" y="525" type="line"/>
      <point x="566" y="0" type="line"/>
      <point x="451" y="0" type="line"/>
      <point x="399" y="206" type="line" smooth="yes"/>
      <point x="389" y="247"/>
      <point x="375" y="305"/>
      <point x="371" y="330" type="curve"/>
      <point x="367" y="305"/>
      <point x="353" y="247"/>
      <point x="343" y="206" type="curve" smooth="yes"/>
      <point x="291" y="0" type="line"/>
      <point x="176" y="0" type="line"/>
      <point x="25" y="525" type="line"/>
      <point x="165" y="525" type="line"/>
      <point x="211" y="331" type="line" smooth="yes"/>
      <point x="220" y="291"/>
      <point x="232" y="236"/>
      <point x="236" y="211" type="curve"/>
      <point x="240" y="237"/>
      <point x="253" y="290"/>
      <point x="264" y="331" type="curve" smooth="yes"/>
      <point x="316" y="525" type="line"/>
      <point x="430" y="525" type="line"/>
      <point x="482" y="331" type="line" smooth="yes"/>
      <point x="493" y="290"/>
      <point x="506" y="237"/>
      <point x="510" y="211" type="curve"/>
      <point x="514" y="236"/>
      <point x="526" y="291"/>
      <point x="535" y="331" type="curve" smooth="yes"/>
      <point x="581" y="525" type="line"/>
    </contour>
  </outline>
</glyph>
<glyph name="x" format="1">
  <advance width="574"/>
  <unicode hex="0078"/>
  <outline>
    <contour>
      <point x="552" y="0" type="line"/>
      <point x="388" y="0" type="line"/>
      <point x="335" y="87" type="line" smooth="yes"/>
      <point x="316" y="118"/>
      <point x="297" y="152"/>
      <point x="287" y="172" type="curve"/>
      <point x="278" y="152"/>
      <point x="257" y="117"/>
      <point x="239" y="87" type="curve" smooth="yes"/>
      <point x="186" y="0" type="line"/>
      <point x="22" y="0" type="line"/>
      <point x="208" y="284" type="line"/>
      <point x="50" y="525" type="line"/>
      <point x="214" y="525" type="line"/>
      <point x="239" y="482" type="line" smooth="yes"/>
      <point x="257" y="451"/>
      <point x="277" y="417"/>
      <point x="287" y="397" type="curve"/>
      <point x="297" y="417"/>
      <point x="317" y="451"/>
      <point x="335" y="482" type="curve" smooth="yes"/>
      <point x="360" y="525" type="line"/>
      <point x="524" y="525" type="line"/>
      <point x="366" y="284" type="line"/>
    </contour>
  </outline>
</glyph>
<glyph name="y" format="1">
  <advance width="590"/>
  <unicode hex="0079"/>
  <outline>
    <contour>
      <point x="565" y="525" type="line"/>
      <point x="295" y="-185" type="line"/>
      <point x="159" y="-185" type="line"/>
      <point x="229" y="0" type="line"/>
      <point x="25" y="525" type="line"/>
      <point x="177" y="525" type="line"/>
      <point x="263" y="272" type="line" smooth="yes"/>
      <point x="277" y="232"/>
      <point x="291" y="182"/>
      <point x="297" y="157" type="curve"/>
      <point x="303" y="183"/>
      <point x="317" y="231"/>
      <point x="331" y="272" type="curve" smooth="yes"/>
      <point x="417" y="525" type="line"/>
    </contour>
  </outline>
</glyph>
<glyph name="z" format="1">
  <advance width="554"/>
  <unicode hex="007A"/>
  <outline>
    <contour>
      <point x="494" y="0" type="line"/>
      <point x="60" y="0" type="line"/>
      <point x="60" y="100" type="line"/>
      <point x="251" y="327" type="line" smooth="yes"/>
      <point x="272" y="352"/>
      <point x="303" y="386"/>
      <point x="317" y="402" type="curve"/>
      <point x="298" y="401"/>
      <point x="257" y="400"/>
      <point x="231" y="400" type="curve" smooth="yes"/>
      <point x="77" y="400" type="line"/>
      <point x="77" y="525" type="line"/>
      <point x="494" y="525" type="line"/>
      <point x="494" y="425" type="line"/>
      <point x="309" y="198" type="line" smooth="yes"/>
      <point x="288" y="172"/>
      <point x="258" y="139"/>
      <point x="244" y="123" type="curve"/>
      <point x="263" y="124"/>
      <point x="304" y="125"/>
      <point x="330" y="125" type="curve" smooth="yes"/>
      <point x="494" y="125" type="line"/>
    </contour>
  </outline>
</glyph>
<glyph name="braceleft" format="1">
  <advance width="460"/>
  <unicode hex="007B"/>
  <outline>
    <contour>
      <point x="407" y="-110" type="line"/>
      <point x="223" y="-110"/>
      <point x="142" y="-38"/>
      <point x="142" y="101" type="curve" smooth="yes"/>
      <point x="142" y="172" type="line" smooth="yes"/>
      <point x="142" y="220"/>
      <point x="121" y="241"/>
      <point x="82" y="241" type="curve" smooth="yes"/>
      <point x="60" y="241" type="line"/>
      <point x="60" y="353" type="line"/>
      <point x="82" y="353" type="line" smooth="yes"/>
      <point x="121" y="353"/>
      <point x="142" y="374"/>
      <point x="142" y="422" type="curve" smooth="yes"/>
      <point x="142" y="494" type="line" smooth="yes"/>
      <point x="142" y="633"/>
      <point x="223" y="705"/>
      <point x="407" y="705" type="curve"/>
      <point x="407" y="614" type="line"/>
      <point x="307" y="604"/>
      <point x="282" y="566"/>
      <point x="282" y="484" type="curve" smooth="yes"/>
      <point x="282" y="453" type="line" smooth="yes"/>
      <point x="282" y="345"/>
      <point x="252" y="316"/>
      <point x="187" y="297" type="curve"/>
      <point x="252" y="278"/>
      <point x="282" y="249"/>
      <point x="282" y="141" type="curve" smooth="yes"/>
      <point x="282" y="111" type="line" smooth="yes"/>
      <point x="282" y="29"/>
      <point x="307" y="-9"/>
      <point x="407" y="-19" type="curve"/>
    </contour>
  </outline>
</glyph>
<glyph name="bar" format="1">
  <advance width="285"/>
  <unicode hex="007C"/>
  <outline>
    <contour>
      <point x="205" y="-185" type="line"/>
      <point x="80" y="-185" type="line"/>
      <point x="80" y="800" type="line"/>
      <point x="205" y="800" type="line"/>
    </contour>
  </outline>
</glyph>
<glyph name="braceright" format="1">
  <advance width="460"/>
  <unicode hex="007D"/>
  <outline>
    <contour>
      <point x="400" y="242" type="line"/>
      <point x="378" y="242" type="line" smooth="yes"/>
      <point x="339" y="242"/>
      <point x="318" y="221"/>
      <point x="318" y="173" type="curve" smooth="yes"/>
      <point x="318" y="101" type="line" smooth="yes"/>
      <point x="318" y="-38"/>
      <point x="237" y="-110"/>
      <point x="53" y="-110" type="curve"/>
      <point x="53" y="-19" type="line"/>
      <point x="153" y="-9"/>
      <point x="178" y="29"/>
      <point x="178" y="111" type="curve" smooth="yes"/>
      <point x="178" y="142" type="line" smooth="yes"/>
      <point x="178" y="250"/>
      <point x="208" y="279"/>
      <point x="273" y="298" type="curve"/>
      <point x="208" y="317"/>
      <point x="178" y="346"/>
      <point x="178" y="454" type="curve" smooth="yes"/>
      <point x="178" y="484" type="line" smooth="yes"/>
      <point x="178" y="566"/>
      <point x="153" y="604"/>
      <point x="53" y="614" type="curve"/>
      <point x="53" y="705" type="line"/>
      <point x="237" y="705"/>
      <point x="318" y="633"/>
      <point x="318" y="494" type="curve" smooth="yes"/>
      <point x="318" y="423" type="line" smooth="yes"/>
      <point x="318" y="375"/>
      <point x="339" y="354"/>
      <point x="378" y="354" type="curve" smooth="yes"/>
      <point x="400" y="354" type="line"/>
    </contour>
  </outline>
</glyph>
<glyph name="asciitilde" format="1">
  <advance width="562"/>
  <unicode hex="007E"/>
  <outline>
    <contour>
      <point x="520" y="424" type="line"/>
      <point x="484" y="332"/>
      <point x="441" y="273"/>
      <point x="367" y="273" type="curve" smooth="yes"/>
      <point x="326" y="273"/>
      <point x="304" y="284"/>
      <point x="271" y="307" type="curve" smooth="yes"/>
      <point x="233" y="333"/>
      <point x="212" y="347"/>
      <point x="193" y="347" type="curve" smooth="yes"/>
      <point x="165" y="347"/>
      <point x="156" y="336"/>
      <point x="124" y="276" type="curve"/>
      <point x="42" y="318" type="line"/>
      <point x="78" y="410"/>
      <point x="121" y="469"/>
      <point x="195" y="469" type="curve" smooth="yes"/>
      <point x="236" y="469"/>
      <point x="258" y="458"/>
      <point x="291" y="435" type="curve" smooth="yes"/>
      <point x="334" y="406"/>
      <point x="350" y="395"/>
      <point x="369" y="395" type="curve" smooth="yes"/>
      <point x="397" y="395"/>
      <point x="406" y="406"/>
      <point x="438" y="466" type="curve"/>
    </contour>
  </outline>
</glyph>
<glyph name="exclamdown" format="1">
  <advance width="340"/>
  <unicode hex="00A1"/>
  <outline>
    <contour>
      <point x="255" y="626" type="curve" smooth="yes"/>
      <point x="255" y="580"/>
      <point x="216" y="541"/>
      <point x="170" y="541" type="curve" smooth="yes"/>
      <point x="124" y="541"/>
      <point x="85" y="580"/>
      <point x="85" y="626" type="curve" smooth="yes"/>
      <point x="85" y="672"/>
      <point x="124" y="711"/>
      <point x="170" y="711" type="curve" smooth="yes"/>
      <point x="216" y="711"/>
      <point x="255" y="672"/>
    </contour>
    <contour>
      <point x="240" y="0" type="line"/>
      <point x="100" y="0" type="line"/>
      <point x="100" y="288" type="line"/>
      <point x="123" y="480" type="line"/>
      <point x="217" y="480" type="line"/>
      <point x="240" y="288" type="line"/>
    </contour>
  </outline>
</glyph>
<glyph name="cent" format="1">
  <advance width="537"/>
  <unicode hex="00A2"/>
  <outline>
    <contour>
      <point x="501" y="200" type="line"/>
      <point x="461" y="146"/>
      <point x="414" y="104"/>
      <point x="345" y="89" type="curve"/>
      <point x="345" y="-11" type="line"/>
      <point x="210" y="-11" type="line"/>
      <point x="210" y="95" type="line"/>
      <point x="111" y="128"/>
      <point x="40" y="226"/>
      <point x="40" y="356" type="curve" smooth="yes"/>
      <point x="40" y="485"/>
      <point x="108" y="583"/>
      <point x="210" y="617" type="curve"/>
      <point x="210" y="700" type="line"/>
      <point x="345" y="700" type="line"/>
      <point x="345" y="625" type="line"/>
      <point x="415" y="611"/>
      <point x="464" y="568"/>
      <point x="500" y="514" type="curve"/>
      <point x="409" y="428" type="line"/>
      <point x="378" y="472"/>
      <point x="345" y="503"/>
      <point x="289" y="503" type="curve" smooth="yes"/>
      <point x="223" y="503"/>
      <point x="180" y="451"/>
      <point x="180" y="356" type="curve" smooth="yes"/>
      <point x="180" y="264"/>
      <point x="223" y="210"/>
      <point x="289" y="210" type="curve" smooth="yes"/>
      <point x="343" y="210"/>
      <point x="377" y="234"/>
      <point x="413" y="277" type="curve"/>
    </contour>
  </outline>
</glyph>
<glyph name="sterling" format="1">
  <advance width="670"/>
  <unicode hex="00A3"/>
  <outline>
    <contour>
      <point x="624" y="616" type="curve"/>
      <point x="540" y="513" type="line"/>
      <point x="492" y="556"/>
      <point x="429" y="576"/>
      <point x="367" y="576" type="curve" smooth="yes"/>
      <point x="300" y="576"/>
      <point x="266" y="550"/>
      <point x="266" y="508" type="curve" smooth="yes"/>
      <point x="266" y="483"/>
      <point x="279" y="459"/>
      <point x="291" y="438" type="curve" smooth="yes"/>
      <point x="299" y="424"/>
      <point x="313" y="399"/>
      <point x="318" y="383" type="curve"/>
      <point x="471" y="383" type="line"/>
      <point x="471" y="270" type="line"/>
      <point x="328" y="270" type="line"/>
      <point x="323" y="210"/>
      <point x="304" y="171"/>
      <point x="262" y="120" type="curve"/>
      <point x="610" y="120" type="line"/>
      <point x="610" y="0" type="line"/>
      <point x="88" y="0" type="line"/>
      <point x="88" y="102" type="line"/>
      <point x="144" y="147"/>
      <point x="177" y="202"/>
      <point x="185" y="270" type="curve"/>
      <point x="88" y="270" type="line"/>
      <point x="88" y="383" type="line"/>
      <point x="167" y="383" type="line"/>
      <point x="159" y="399"/>
      <point x="148" y="416"/>
      <point x="142" y="428" type="curve" smooth="yes"/>
      <point x="128" y="454"/>
      <point x="113" y="492"/>
      <point x="113" y="527" type="curve" smooth="yes"/>
      <point x="113" y="645"/>
      <point x="207" y="711"/>
      <point x="369" y="711" type="curve" smooth="yes"/>
      <point x="465" y="711"/>
      <point x="555" y="678"/>
    </contour>
  </outline>
</glyph>
<glyph name="yen" format="1">
  <advance width="684"/>
  <unicode hex="00A5"/>
  <outline>
    <contour>
      <point x="662" y="700" type="line"/>
      <point x="409" y="272" type="line"/>
      <point x="409" y="223" type="line"/>
      <point x="572" y="223" type="line"/>
      <point x="572" y="105" type="line"/>
      <point x="409" y="105" type="line"/>
      <point x="409" y="0" type="line"/>
      <point x="275" y="0" type="line"/>
      <point x="275" y="105" type="line"/>
      <point x="112" y="105" type="line"/>
      <point x="112" y="223" type="line"/>
      <point x="275" y="223" type="line"/>
      <point x="275" y="269" type="line"/>
      <point x="22" y="700" type="line"/>
      <point x="183" y="700" type="line"/>
      <point x="275" y="534" type="line" smooth="yes"/>
      <point x="298" y="493"/>
      <point x="333" y="424"/>
      <point x="343" y="397" type="curve"/>
      <point x="354" y="424"/>
      <point x="387" y="491"/>
      <point x="411" y="534" type="curve" smooth="yes"/>
      <point x="503" y="700" type="line"/>
    </contour>
  </outline>
</glyph>
<glyph name="section" format="1">
  <advance width="700"/>
  <unicode hex="00A7"/>
  <outline>
    <contour>
      <point x="645" y="251" type="curve" smooth="yes"/>
      <point x="645" y="168"/>
      <point x="597" y="118"/>
      <point x="535" y="86" type="curve"/>
      <point x="549" y="63"/>
      <point x="555" y="35"/>
      <point x="555" y="-1" type="curve" smooth="yes"/>
      <point x="555" y="-93"/>
      <point x="483" y="-164"/>
      <point x="347" y="-164" type="curve" smooth="yes"/>
      <point x="266" y="-164"/>
      <point x="190" y="-139"/>
      <point x="132" y="-96" type="curve"/>
      <point x="201" y="0" type="line"/>
      <point x="251" y="-35"/>
      <point x="313" y="-49"/>
      <point x="356" y="-49" type="curve" smooth="yes"/>
      <point x="409" y="-49"/>
      <point x="426" y="-29"/>
      <point x="426" y="-2" type="curve" smooth="yes"/>
      <point x="426" y="30"/>
      <point x="400" y="40"/>
      <point x="260" y="86" type="curve" smooth="yes"/>
      <point x="128" y="130"/>
      <point x="55" y="179"/>
      <point x="55" y="296" type="curve" smooth="yes"/>
      <point x="55" y="379"/>
      <point x="103" y="429"/>
      <point x="164" y="461" type="curve"/>
      <point x="151" y="484"/>
      <point x="145" y="512"/>
      <point x="145" y="548" type="curve" smooth="yes"/>
      <point x="145" y="640"/>
      <point x="217" y="711"/>
      <point x="353" y="711" type="curve" smooth="yes"/>
      <point x="434" y="711"/>
      <point x="510" y="686"/>
      <point x="568" y="643" type="curve"/>
      <point x="499" y="547" type="line"/>
      <point x="449" y="582"/>
      <point x="387" y="596"/>
      <point x="344" y="596" type="curve" smooth="yes"/>
      <point x="291" y="596"/>
      <point x="274" y="576"/>
      <point x="274" y="549" type="curve" smooth="yes"/>
      <point x="274" y="517"/>
      <point x="300" y="507"/>
      <point x="440" y="461" type="curve" smooth="yes"/>
      <point x="572" y="417"/>
      <point x="645" y="368"/>
    </contour>
    <contour>
      <point x="511" y="241" type="curve" smooth="yes"/>
      <point x="511" y="298"/>
      <point x="442" y="320"/>
      <point x="372" y="344" type="curve" smooth="yes"/>
      <point x="324" y="360"/>
      <point x="284" y="375"/>
      <point x="253" y="390" type="curve"/>
      <point x="211" y="372"/>
      <point x="189" y="346"/>
      <point x="189" y="306" type="curve" smooth="yes"/>
      <point x="189" y="249"/>
      <point x="258" y="227"/>
      <point x="328" y="203" type="curve" smooth="yes"/>
      <point x="376" y="187"/>
      <point x="416" y="172"/>
      <point x="447" y="157" type="curve"/>
      <point x="489" y="175"/>
      <point x="511" y="201"/>
    </contour>
  </outline>
</glyph>
<glyph name="dieresis" format="1">
  <advance width="500"/>
  <unicode hex="00A8"/>
  <outline>
    <contour>
      <point x="436" y="672" type="curve" smooth="yes"/>
      <point x="436" y="631"/>
      <point x="400" y="595"/>
      <point x="359" y="595" type="curve" smooth="yes"/>
      <point x="316" y="595"/>
      <point x="280" y="631"/>
      <point x="280" y="672" type="curve" smooth="yes"/>
      <point x="280" y="715"/>
      <point x="316" y="750"/>
      <point x="359" y="750" type="curve" smooth="yes"/>
      <point x="400" y="750"/>
      <point x="436" y="715"/>
    </contour>
    <contour>
      <point x="220" y="672" type="curve" smooth="yes"/>
      <point x="220" y="631"/>
      <point x="184" y="595"/>
      <point x="142" y="595" type="curve" smooth="yes"/>
      <point x="100" y="595"/>
      <point x="64" y="631"/>
      <point x="64" y="672" type="curve" smooth="yes"/>
      <point x="64" y="715"/>
      <point x="100" y="750"/>
      <point x="142" y="750" type="curve" smooth="yes"/>
      <point x="184" y="750"/>
      <point x="220" y="715"/>
    </contour>
  </outline>
</glyph>
<glyph name="copyright" format="1">
  <advance width="836"/>
  <unicode hex="00A9"/>
  <outline>
    <contour>
      <point x="779" y="350" type="curve" smooth="yes"/>
      <point x="779" y="145"/>
      <point x="623" y="-11"/>
      <point x="418" y="-11" type="curve" smooth="yes"/>
      <point x="213" y="-11"/>
      <point x="57" y="145"/>
      <point x="57" y="350" type="curve" smooth="yes"/>
      <point x="57" y="555"/>
      <point x="213" y="711"/>
      <point x="418" y="711" type="curve" smooth="yes"/>
      <point x="623" y="711"/>
      <point x="779" y="555"/>
    </contour>
    <contour>
      <point x="715" y="350" type="curve" smooth="yes"/>
      <point x="715" y="519"/>
      <point x="587" y="647"/>
      <point x="418" y="647" type="curve" smooth="yes"/>
      <point x="249" y="647"/>
      <point x="121" y="519"/>
      <point x="121" y="350" type="curve" smooth="yes"/>
      <point x="121" y="181"/>
      <point x="249" y="53"/>
      <point x="418" y="53" type="curve" smooth="yes"/>
      <point x="587" y="53"/>
      <point x="715" y="181"/>
    </contour>
    <contour>
      <point x="568" y="469" type="curve"/>
      <point x="489" y="425" type="line"/>
      <point x="473" y="453"/>
      <point x="454" y="469"/>
      <point x="423" y="469" type="curve" smooth="yes"/>
      <point x="372" y="469"/>
      <point x="344" y="428"/>
      <point x="344" y="352" type="curve" smooth="yes"/>
      <point x="344" y="278"/>
      <point x="374" y="236"/>
      <point x="424" y="236" type="curve" smooth="yes"/>
      <point x="453" y="236"/>
      <point x="474" y="254"/>
      <point x="495" y="287" type="curve"/>
      <point x="565" y="239" type="line"/>
      <point x="532" y="182"/>
      <point x="492" y="149"/>
      <point x="422" y="149" type="curve" smooth="yes"/>
      <point x="319" y="149"/>
      <point x="250" y="228"/>
      <point x="250" y="352" type="curve" smooth="yes"/>
      <point x="250" y="471"/>
      <point x="322" y="556"/>
      <point x="424" y="556" type="curve" smooth="yes"/>
      <point x="498" y="556"/>
      <point x="543" y="520"/>
    </contour>
  </outline>
</glyph>
<glyph name="ordfeminine" format="1">
  <advance width="477"/>
  <unicode hex="00AA"/>
  <outline>
    <contour>
      <point x="415" y="276" type="line"/>
      <point x="306" y="276" type="line"/>
      <point x="306" y="307" type="line"/>
      <point x="283" y="283"/>
      <point x="248" y="268"/>
      <point x="208" y="268" type="curve" smooth="yes"/>
      <point x="129" y="268"/>
      <point x="49" y="316"/>
      <point x="49" y="419" type="curve" smooth="yes"/>
      <point x="49" y="513"/>
      <point x="125" y="560"/>
      <point x="222" y="560" type="curve" smooth="yes"/>
      <point x="261" y="560"/>
      <point x="288" y="552"/>
      <point x="306" y="543" type="curve"/>
      <point x="306" y="564" type="line" smooth="yes"/>
      <point x="306" y="595"/>
      <point x="284" y="620"/>
      <point x="243" y="620" type="curve" smooth="yes"/>
      <point x="192" y="620"/>
      <point x="165" y="613"/>
      <point x="125" y="591" type="curve"/>
      <point x="83" y="669" type="line"/>
      <point x="133" y="696"/>
      <point x="175" y="711"/>
      <point x="243" y="711" type="curve" smooth="yes"/>
      <point x="346" y="711"/>
      <point x="415" y="657"/>
      <point x="415" y="562" type="curve" smooth="yes"/>
    </contour>
    <contour>
      <point x="306" y="401" type="curve"/>
      <point x="306" y="456" type="line"/>
      <point x="285" y="468"/>
      <point x="265" y="473"/>
      <point x="226" y="473" type="curve" smooth="yes"/>
      <point x="183" y="473"/>
      <point x="159" y="454"/>
      <point x="159" y="419" type="curve" smooth="yes"/>
      <point x="159" y="389"/>
      <point x="177" y="360"/>
      <point x="226" y="360" type="curve" smooth="yes"/>
      <point x="262" y="360"/>
      <point x="293" y="381"/>
    </contour>
  </outline>
</glyph>
<glyph name="guillemotleft" format="1">
  <advance width="628"/>
  <unicode hex="00AB"/>
  <outline>
    <contour>
      <point x="588" y="0" type="line"/>
      <point x="445" y="0" type="line"/>
      <point x="282" y="262" type="line"/>
      <point x="445" y="525" type="line"/>
      <point x="588" y="525" type="line"/>
      <point x="430" y="263" type="line"/>
    </contour>
    <contour>
      <point x="336" y="0" type="line"/>
      <point x="193" y="0" type="line"/>
      <point x="30" y="262" type="line"/>
      <point x="193" y="525" type="line"/>
      <point x="336" y="525" type="line"/>
      <point x="178" y="263" type="line"/>
    </contour>
  </outline>
</glyph>
<glyph name="degree" format="1">
  <advance width="486"/>
  <unicode hex="00B0"/>
  <outline>
    <contour>
      <point x="441" y="514" type="curve" smooth="yes"/>
      <point x="441" y="401"/>
      <point x="355" y="315"/>
      <point x="243" y="315" type="curve" smooth="yes"/>
      <point x="132" y="315"/>
      <point x="45" y="401"/>
      <point x="45" y="514" type="curve" smooth="yes"/>
      <point x="45" y="624"/>
      <point x="132" y="711"/>
      <point x="243" y="711" type="curve" smooth="yes"/>
      <point x="355" y="711"/>
      <point x="441" y="624"/>
    </contour>
    <contour>
      <point x="336" y="514" type="curve" smooth="yes"/>
      <point x="336" y="565"/>
      <point x="296" y="607"/>
      <point x="243" y="607" type="curve" smooth="yes"/>
      <point x="191" y="607"/>
      <point x="150" y="565"/>
      <point x="150" y="514" type="curve" smooth="yes"/>
      <point x="150" y="460"/>
      <point x="191" y="419"/>
      <point x="243" y="419" type="curve" smooth="yes"/>
      <point x="296" y="419"/>
      <point x="336" y="460"/>
    </contour>
  </outline>
</glyph>
<glyph name="acute" format="1">
  <advance width="500"/>
  <unicode hex="00B4"/>
  <outline>
    <contour>
      <point x="400" y="755" type="line"/>
      <point x="255" y="595" type="line"/>
      <point x="138" y="595" type="line"/>
      <point x="225" y="755" type="line"/>
    </contour>
  </outline>
</glyph>
<glyph name="periodcentered" format="1">
  <advance width="272"/>
  <unicode hex="00B7"/>
  <outline>
    <contour>
      <point x="230" y="367" type="curve" smooth="yes"/>
      <point x="230" y="316"/>
      <point x="187" y="273"/>
      <point x="136" y="273" type="curve" smooth="yes"/>
      <point x="85" y="273"/>
      <point x="42" y="316"/>
      <point x="42" y="367" type="curve" smooth="yes"/>
      <point x="42" y="418"/>
      <point x="85" y="461"/>
      <point x="136" y="461" type="curve" smooth="yes"/>
      <point x="187" y="461"/>
      <point x="230" y="418"/>
    </contour>
  </outline>
</glyph>
<glyph name="cedilla" format="1">
  <advance width="500"/>
  <unicode hex="00B8"/>
  <outline>
    <contour>
      <point x="377" y="-106" type="curve" smooth="yes"/>
      <point x="377" y="-166"/>
      <point x="329" y="-193"/>
      <point x="258" y="-193" type="curve" smooth="yes"/>
      <point x="204" y="-193"/>
      <point x="159" y="-177"/>
      <point x="127" y="-157" type="curve"/>
      <point x="148" y="-119" type="line"/>
      <point x="178" y="-135"/>
      <point x="211" y="-143"/>
      <point x="237" y="-143" type="curve" smooth="yes"/>
      <point x="272" y="-143"/>
      <point x="291" y="-132"/>
      <point x="291" y="-109" type="curve" smooth="yes"/>
      <point x="291" y="-89"/>
      <point x="276" y="-83"/>
      <point x="260" y="-83" type="curve" smooth="yes"/>
      <point x="247" y="-83"/>
      <point x="240" y="-85"/>
      <point x="230" y="-90" type="curve"/>
      <point x="194" y="-76" type="line"/>
      <point x="221" y="37" type="line"/>
      <point x="277" y="37" type="line"/>
      <point x="260" y="-42" type="line"/>
      <point x="268" y="-38"/>
      <point x="280" y="-35"/>
      <point x="299" y="-35" type="curve" smooth="yes"/>
      <point x="342" y="-35"/>
      <point x="377" y="-57"/>
    </contour>
  </outline>
</glyph>
<glyph name="ordmasculine" format="1">
  <advance width="491"/>
  <unicode hex="00BA"/>
  <outline>
    <contour>
      <point x="438" y="489" type="curve" smooth="yes"/>
      <point x="438" y="359"/>
      <point x="356" y="268"/>
      <point x="245" y="268" type="curve" smooth="yes"/>
      <point x="134" y="268"/>
      <point x="53" y="359"/>
      <point x="53" y="489" type="curve" smooth="yes"/>
      <point x="53" y="619"/>
      <point x="134" y="711"/>
      <point x="245" y="711" type="curve" smooth="yes"/>
      <point x="356" y="711"/>
      <point x="438" y="619"/>
    </contour>
    <contour>
      <point x="324" y="489" type="curve" smooth="yes"/>
      <point x="324" y="554"/>
      <point x="298" y="603"/>
      <point x="245" y="603" type="curve" smooth="yes"/>
      <point x="192" y="603"/>
      <point x="166" y="555"/>
      <point x="166" y="489" type="curve" smooth="yes"/>
      <point x="166" y="423"/>
      <point x="192" y="376"/>
      <point x="245" y="376" type="curve" smooth="yes"/>
      <point x="298" y="376"/>
      <point x="324" y="430"/>
    </contour>
  </outline>
</glyph>
<glyph name="guillemotright" format="1">
  <advance width="628"/>
  <unicode hex="00BB"/>
  <outline>
    <contour>
      <point x="598" y="263" type="line"/>
      <point x="435" y="0" type="line"/>
      <point x="292" y="0" type="line"/>
      <point x="450" y="262" type="line"/>
      <point x="292" y="525" type="line"/>
      <point x="435" y="525" type="line"/>
    </contour>
    <contour>
      <point x="346" y="263" type="line"/>
      <point x="183" y="0" type="line"/>
      <point x="40" y="0" type="line"/>
      <point x="198" y="262" type="line"/>
      <point x="40" y="525" type="line"/>
      <point x="183" y="525" type="line"/>
    </contour>
  </outline>
</glyph>
<glyph name="questiondown" format="1">
  <advance width="584"/>
  <unicode hex="00BF"/>
  <outline>
    <contour>
      <point x="400" y="626" type="curve" smooth="yes"/>
      <point x="400" y="580"/>
      <point x="361" y="541"/>
      <point x="315" y="541" type="curve" smooth="yes"/>
      <point x="269" y="541"/>
      <point x="230" y="580"/>
      <point x="230" y="626" type="curve" smooth="yes"/>
      <point x="230" y="672"/>
      <point x="269" y="711"/>
      <point x="315" y="711" type="curve" smooth="yes"/>
      <point x="361" y="711"/>
      <point x="400" y="672"/>
    </contour>
    <contour>
      <point x="562" y="105" type="line"/>
      <point x="501" y="41"/>
      <point x="414" y="-11"/>
      <point x="297" y="-11" type="curve" smooth="yes"/>
      <point x="144" y="-11"/>
      <point x="38" y="54"/>
      <point x="38" y="193" type="curve" smooth="yes"/>
      <point x="38" y="286"/>
      <point x="91" y="335"/>
      <point x="139" y="358" type="curve" smooth="yes"/>
      <point x="223" y="398"/>
      <point x="244" y="421"/>
      <point x="247" y="480" type="curve"/>
      <point x="384" y="480" type="line"/>
      <point x="384" y="385"/>
      <point x="356" y="326"/>
      <point x="243" y="274" type="curve" smooth="yes"/>
      <point x="193" y="251"/>
      <point x="178" y="235"/>
      <point x="178" y="199" type="curve" smooth="yes"/>
      <point x="178" y="153"/>
      <point x="212" y="126"/>
      <point x="297" y="126" type="curve" smooth="yes"/>
      <point x="373" y="126"/>
      <point x="427" y="162"/>
      <point x="472" y="210" type="curve"/>
    </contour>
  </outline>
</glyph>
<glyph name="Aring" format="1">
  <advance width="750"/>
  <unicode hex="00C5"/>
  <outline>
    <contour>
      <point x="710" y="0" type="line"/>
      <point x="556" y="0" type="line"/>
      <point x="501" y="156" type="line"/>
      <point x="245" y="156" type="line"/>
      <point x="190" y="0" type="line"/>
      <point x="40" y="0" type="line"/>
      <point x="286" y="643" type="line"/>
      <point x="258" y="667"/>
      <point x="241" y="703"/>
      <point x="241" y="745" type="curve" smooth="yes"/>
      <point x="241" y="822"/>
      <point x="299" y="880"/>
      <point x="376" y="880" type="curve" smooth="yes"/>
      <point x="453" y="880"/>
      <point x="511" y="822"/>
      <point x="511" y="745" type="curve" smooth="yes"/>
      <point x="511" y="703"/>
      <point x="494" y="667"/>
      <point x="465" y="643" type="curve"/>
    </contour>
    <contour>
      <point x="435" y="745" type="curve" smooth="yes"/>
      <point x="435" y="779"/>
      <point x="409" y="805"/>
      <point x="376" y="805" type="curve" smooth="yes"/>
      <point x="343" y="805"/>
      <point x="317" y="779"/>
      <point x="317" y="745" type="curve" smooth="yes"/>
      <point x="317" y="711"/>
      <point x="343" y="685"/>
      <point x="376" y="685" type="curve" smooth="yes"/>
      <point x="409" y="685"/>
      <point x="435" y="711"/>
    </contour>
    <contour>
      <point x="453" y="289" type="line"/>
      <point x="408" y="416" type="line" smooth="yes"/>
      <point x="394" y="457"/>
      <point x="380" y="499"/>
      <point x="373" y="525" type="curve"/>
      <point x="366" y="499"/>
      <point x="352" y="457"/>
      <point x="338" y="416" type="curve" smooth="yes"/>
      <point x="293" y="289" type="line"/>
    </contour>
  </outline>
</glyph>
<glyph name="AE" format="1">
  <advance width="1038"/>
  <unicode hex="00C6"/>
  <outline>
    <contour>
      <point x="979" y="0" type="line"/>
      <point x="504" y="0" type="line"/>
      <point x="504" y="125" type="line"/>
      <point x="255" y="125" type="line"/>
      <point x="174" y="0" type="line"/>
      <point x="14" y="0" type="line"/>
      <point x="484" y="700" type="line"/>
      <point x="964" y="700" type="line"/>
      <point x="964" y="566" type="line"/>
      <point x="638" y="566" type="line"/>
      <point x="638" y="440" type="line"/>
      <point x="819" y="440" type="line"/>
      <point x="819" y="308" type="line"/>
      <point x="638" y="308" type="line"/>
      <point x="638" y="134" type="line"/>
      <point x="979" y="134" type="line"/>
    </contour>
    <contour>
      <point x="506" y="522" type="curve"/>
      <point x="490" y="490"/>
      <point x="452" y="427"/>
      <point x="426" y="388" type="curve" smooth="yes"/>
      <point x="335" y="248" type="line"/>
      <point x="504" y="248" type="line"/>
      <point x="504" y="376" type="line" smooth="yes"/>
      <point x="504" y="417"/>
      <point x="506" y="494"/>
    </contour>
  </outline>
</glyph>
<glyph name="Ccedilla" format="1">
  <advance width="670"/>
  <unicode hex="00C7"/>
  <outline>
    <contour>
      <point x="620" y="556" type="curve"/>
      <point x="490" y="496" type="line"/>
      <point x="465" y="544"/>
      <point x="425" y="572"/>
      <point x="362" y="572" type="curve" smooth="yes"/>
      <point x="257" y="572"/>
      <point x="197" y="480"/>
      <point x="197" y="350" type="curve" smooth="yes"/>
      <point x="197" y="224"/>
      <point x="258" y="128"/>
      <point x="363" y="128" type="curve" smooth="yes"/>
      <point x="426" y="128"/>
      <point x="463" y="155"/>
      <point x="500" y="217" type="curve"/>
      <point x="618" y="147" type="line"/>
      <point x="571" y="50"/>
      <point x="489" y="-9"/>
      <point x="367" y="-11" type="curve"/>
      <point x="360" y="-42" type="line"/>
      <point x="368" y="-38"/>
      <point x="380" y="-35"/>
      <point x="399" y="-35" type="curve" smooth="yes"/>
      <point x="442" y="-35"/>
      <point x="477" y="-57"/>
      <point x="477" y="-106" type="curve" smooth="yes"/>
      <point x="477" y="-166"/>
      <point x="429" y="-193"/>
      <point x="358" y="-193" type="curve" smooth="yes"/>
      <point x="304" y="-193"/>
      <point x="259" y="-177"/>
      <point x="227" y="-157" type="curve"/>
      <point x="248" y="-119" type="line"/>
      <point x="278" y="-135"/>
      <point x="311" y="-143"/>
      <point x="337" y="-143" type="curve" smooth="yes"/>
      <point x="372" y="-143"/>
      <point x="391" y="-132"/>
      <point x="391" y="-109" type="curve" smooth="yes"/>
      <point x="391" y="-89"/>
      <point x="376" y="-83"/>
      <point x="360" y="-83" type="curve" smooth="yes"/>
      <point x="347" y="-83"/>
      <point x="340" y="-85"/>
      <point x="330" y="-90" type="curve"/>
      <point x="294" y="-76" type="line"/>
      <point x="310" y="-8" type="line"/>
      <point x="155" y="15"/>
      <point x="53" y="149"/>
      <point x="53" y="350" type="curve" smooth="yes"/>
      <point x="53" y="563"/>
      <point x="181" y="711"/>
      <point x="364" y="711" type="curve" smooth="yes"/>
      <point x="496" y="711"/>
      <point x="576" y="647"/>
    </contour>
  </outline>
</glyph>
<glyph name="Eth" format="1">
  <advance width="722"/>
  <unicode hex="00D0"/>
  <outline>
    <contour>
      <point x="672" y="350" type="curve" smooth="yes"/>
      <point x="672" y="104"/>
      <point x="494" y="0"/>
      <point x="314" y="0" type="curve" smooth="yes"/>
      <point x="105" y="0" type="line"/>
      <point x="105" y="308" type="line"/>
      <point x="40" y="308" type="line"/>
      <point x="40" y="423" type="line"/>
      <point x="105" y="423" type="line"/>
      <point x="105" y="700" type="line"/>
      <point x="324" y="700" type="line" smooth="yes"/>
      <point x="524" y="700"/>
      <point x="672" y="606"/>
    </contour>
    <contour>
      <point x="528" y="350" type="curve" smooth="yes"/>
      <point x="528" y="493"/>
      <point x="467" y="564"/>
      <point x="319" y="564" type="curve" smooth="yes"/>
      <point x="241" y="564" type="line"/>
      <point x="241" y="423" type="line"/>
      <point x="335" y="423" type="line"/>
      <point x="335" y="308" type="line"/>
      <point x="241" y="308" type="line"/>
      <point x="241" y="136" type="line"/>
      <point x="314" y="136" type="line" smooth="yes"/>
      <point x="461" y="136"/>
      <point x="528" y="222"/>
    </contour>
  </outline>
</glyph>
<glyph name="Oslash" format="1">
  <advance width="719"/>
  <unicode hex="00D8"/>
  <outline>
    <contour>
      <point x="661" y="350" type="curve" smooth="yes"/>
      <point x="661" y="137"/>
      <point x="548" y="-11"/>
      <point x="357" y="-11" type="curve" smooth="yes"/>
      <point x="321" y="-11"/>
      <point x="286" y="-4"/>
      <point x="254" y="8" type="curve"/>
      <point x="226" y="-50" type="line"/>
      <point x="94" y="-50" type="line"/>
      <point x="155" y="74" type="line"/>
      <point x="92" y="138"/>
      <point x="53" y="234"/>
      <point x="53" y="350" type="curve" smooth="yes"/>
      <point x="53" y="563"/>
      <point x="166" y="711"/>
      <point x="357" y="711" type="curve" smooth="yes"/>
      <point x="392" y="711"/>
      <point x="425" y="705"/>
      <point x="456" y="693" type="curve"/>
      <point x="484" y="750" type="line"/>
      <point x="616" y="750" type="line"/>
      <point x="557" y="628" type="line"/>
      <point x="621" y="565"/>
      <point x="661" y="467"/>
    </contour>
    <contour>
      <point x="398" y="574" type="line"/>
      <point x="385" y="577"/>
      <point x="372" y="579"/>
      <point x="357" y="579" type="curve" smooth="yes"/>
      <point x="241" y="579"/>
      <point x="192" y="479"/>
      <point x="192" y="350" type="curve" smooth="yes"/>
      <point x="192" y="296"/>
      <point x="201" y="246"/>
      <point x="219" y="208" type="curve"/>
    </contour>
    <contour>
      <point x="522" y="350" type="curve" smooth="yes"/>
      <point x="522" y="406"/>
      <point x="513" y="457"/>
      <point x="492" y="497" type="curve"/>
      <point x="312" y="127" type="line"/>
      <point x="326" y="123"/>
      <point x="341" y="121"/>
      <point x="357" y="121" type="curve" smooth="yes"/>
      <point x="473" y="121"/>
      <point x="522" y="221"/>
    </contour>
  </outline>
</glyph>
<glyph name="Thorn" format="1">
  <advance width="680"/>
  <unicode hex="00DE"/>
  <outline>
    <contour>
      <point x="637" y="370" type="curve" smooth="yes"/>
      <point x="637" y="208"/>
      <point x="529" y="140"/>
      <point x="384" y="140" type="curve" smooth="yes"/>
      <point x="230" y="140" type="line"/>
      <point x="230" y="0" type="line"/>
      <point x="90" y="0" type="line"/>
      <point x="90" y="700" type="line"/>
      <point x="230" y="700" type="line"/>
      <point x="230" y="592" type="line"/>
      <point x="396" y="592" type="line" smooth="yes"/>
      <point x="528" y="592"/>
      <point x="637" y="519"/>
    </contour>
    <contour>
      <point x="493" y="367" type="curve" smooth="yes"/>
      <point x="493" y="428"/>
      <point x="453" y="456"/>
      <point x="391" y="456" type="curve" smooth="yes"/>
      <point x="230" y="456" type="line"/>
      <point x="230" y="276" type="line"/>
      <point x="393" y="276" type="line" smooth="yes"/>
      <point x="458" y="276"/>
      <point x="493" y="306"/>
    </contour>
  </outline>
</glyph>
<glyph name="germandbls" format="1">
  <advance width="586"/>
  <unicode hex="00DF"/>
  <outline>
    <contour>
      <point x="546" y="221" type="curve" smooth="yes"/>
      <point x="546" y="77"/>
      <point x="467" y="0"/>
      <point x="303" y="0" type="curve" smooth="yes"/>
      <point x="281" y="0" type="line"/>
      <point x="281" y="125" type="line"/>
      <point x="299" y="125" type="line" smooth="yes"/>
      <point x="366" y="125"/>
      <point x="406" y="153"/>
      <point x="406" y="221" type="curve" smooth="yes"/>
      <point x="406" y="295"/>
      <point x="368" y="333"/>
      <point x="287" y="333" type="curve" smooth="yes"/>
      <point x="281" y="333" type="line"/>
      <point x="281" y="453" type="line"/>
      <point x="286" y="453" type="line" smooth="yes"/>
      <point x="327" y="453"/>
      <point x="352" y="481"/>
      <point x="352" y="526" type="curve" smooth="yes"/>
      <point x="352" y="567"/>
      <point x="329" y="596"/>
      <point x="277" y="596" type="curve" smooth="yes"/>
      <point x="219" y="596"/>
      <point x="205" y="566"/>
      <point x="205" y="514" type="curve" smooth="yes"/>
      <point x="205" y="-124" type="line"/>
      <point x="67" y="-193" type="line"/>
      <point x="67" y="521" type="line" smooth="yes"/>
      <point x="67" y="671"/>
      <point x="152" y="726"/>
      <point x="279" y="726" type="curve" smooth="yes"/>
      <point x="397" y="726"/>
      <point x="492" y="661"/>
      <point x="492" y="541" type="curve" smooth="yes"/>
      <point x="492" y="468"/>
      <point x="457" y="422"/>
      <point x="399" y="402" type="curve"/>
      <point x="474" y="387"/>
      <point x="546" y="336"/>
    </contour>
  </outline>
</glyph>
<glyph name="ae" format="1">
  <advance width="843"/>
  <unicode hex="00E6"/>
  <outline>
    <contour>
      <point x="800" y="262" type="curve" smooth="yes"/>
      <point x="800" y="242"/>
      <point x="799" y="228"/>
      <point x="798" y="218" type="curve"/>
      <point x="484" y="218" type="line"/>
      <point x="489" y="146"/>
      <point x="542" y="119"/>
      <point x="592" y="119" type="curve" smooth="yes"/>
      <point x="630" y="119"/>
      <point x="662" y="133"/>
      <point x="682" y="156" type="curve"/>
      <point x="780" y="74" type="line"/>
      <point x="738" y="20"/>
      <point x="662" y="-11"/>
      <point x="592" y="-11" type="curve" smooth="yes"/>
      <point x="510" y="-11"/>
      <point x="448" y="21"/>
      <point x="408" y="69" type="curve"/>
      <point x="358" y="13"/>
      <point x="306" y="-11"/>
      <point x="238" y="-11" type="curve" smooth="yes"/>
      <point x="140" y="-11"/>
      <point x="42" y="49"/>
      <point x="42" y="176" type="curve" smooth="yes"/>
      <point x="42" y="292"/>
      <point x="136" y="350"/>
      <point x="255" y="350" type="curve" smooth="yes"/>
      <point x="303" y="350"/>
      <point x="334" y="340"/>
      <point x="356" y="329" type="curve"/>
      <point x="356" y="355" type="line" smooth="yes"/>
      <point x="356" y="392"/>
      <point x="331" y="422"/>
      <point x="281" y="422" type="curve" smooth="yes"/>
      <point x="218" y="422"/>
      <point x="185" y="413"/>
      <point x="137" y="387" type="curve"/>
      <point x="84" y="483" type="line"/>
      <point x="145" y="518"/>
      <point x="196" y="536"/>
      <point x="281" y="536" type="curve" smooth="yes"/>
      <point x="357" y="536"/>
      <point x="403" y="515"/>
      <point x="439" y="475" type="curve"/>
      <point x="473" y="512"/>
      <point x="520" y="536"/>
      <point x="579" y="536" type="curve" smooth="yes"/>
      <point x="719" y="536"/>
      <point x="800" y="412"/>
    </contour>
    <contour>
      <point x="666" y="322" type="line"/>
      <point x="662" y="369"/>
      <point x="634" y="416"/>
      <point x="572" y="416" type="curve" smooth="yes"/>
      <point x="522" y="416"/>
      <point x="491" y="375"/>
      <point x="486" y="322" type="curve"/>
    </contour>
    <contour>
      <point x="356" y="154" type="curve"/>
      <point x="356" y="220" type="line"/>
      <point x="332" y="235"/>
      <point x="309" y="242"/>
      <point x="260" y="242" type="curve" smooth="yes"/>
      <point x="208" y="242"/>
      <point x="180" y="218"/>
      <point x="180" y="176" type="curve" smooth="yes"/>
      <point x="180" y="139"/>
      <point x="201" y="106"/>
      <point x="260" y="106" type="curve" smooth="yes"/>
      <point x="305" y="106"/>
      <point x="341" y="129"/>
    </contour>
  </outline>
</glyph>
<glyph name="ccedilla" format="1">
  <advance width="537"/>
  <unicode hex="00E7"/>
  <outline>
    <contour>
      <point x="501" y="106" type="line"/>
      <point x="453" y="42"/>
      <point x="397" y="-6"/>
      <point x="303" y="-11" type="curve"/>
      <point x="296" y="-42" type="line"/>
      <point x="304" y="-38"/>
      <point x="316" y="-35"/>
      <point x="335" y="-35" type="curve" smooth="yes"/>
      <point x="378" y="-35"/>
      <point x="413" y="-57"/>
      <point x="413" y="-106" type="curve" smooth="yes"/>
      <point x="413" y="-166"/>
      <point x="365" y="-193"/>
      <point x="294" y="-193" type="curve" smooth="yes"/>
      <point x="240" y="-193"/>
      <point x="195" y="-177"/>
      <point x="163" y="-157" type="curve"/>
      <point x="184" y="-119" type="line"/>
      <point x="214" y="-135"/>
      <point x="247" y="-143"/>
      <point x="273" y="-143" type="curve" smooth="yes"/>
      <point x="308" y="-143"/>
      <point x="327" y="-132"/>
      <point x="327" y="-109" type="curve" smooth="yes"/>
      <point x="327" y="-89"/>
      <point x="312" y="-83"/>
      <point x="296" y="-83" type="curve" smooth="yes"/>
      <point x="283" y="-83"/>
      <point x="276" y="-85"/>
      <point x="266" y="-90" type="curve"/>
      <point x="230" y="-76" type="line"/>
      <point x="246" y="-8" type="line"/>
      <point x="128" y="12"/>
      <point x="40" y="117"/>
      <point x="40" y="262" type="curve" smooth="yes"/>
      <point x="40" y="423"/>
      <point x="146" y="536"/>
      <point x="292" y="536" type="curve" smooth="yes"/>
      <point x="392" y="536"/>
      <point x="456" y="487"/>
      <point x="500" y="420" type="curve"/>
      <point x="409" y="328" type="line"/>
      <point x="378" y="372"/>
      <point x="345" y="403"/>
      <point x="289" y="403" type="curve" smooth="yes"/>
      <point x="223" y="403"/>
      <point x="180" y="348"/>
      <point x="180" y="262" type="curve" smooth="yes"/>
      <point x="180" y="178"/>
      <point x="223" y="122"/>
      <point x="289" y="122" type="curve" smooth="yes"/>
      <point x="343" y="122"/>
      <point x="377" y="146"/>
      <point x="413" y="189" type="curve"/>
    </contour>
  </outline>
</glyph>
<glyph name="eth" format="1">
  <advance width="555"/>
  <unicode hex="00F0"/>
  <outline>
    <contour>
      <point x="515" y="282" type="curve" smooth="yes"/>
      <point x="515" y="82"/>
      <point x="414" y="-11"/>
      <point x="277" y="-11" type="curve" smooth="yes"/>
      <point x="140" y="-11"/>
      <point x="40" y="87"/>
      <point x="40" y="232" type="curve" smooth="yes"/>
      <point x="40" y="377"/>
      <point x="139" y="476"/>
      <point x="257" y="476" type="curve" smooth="yes"/>
      <point x="307" y="476"/>
      <point x="345" y="463"/>
      <point x="381" y="438" type="curve"/>
      <point x="371" y="483"/>
      <point x="348" y="520"/>
      <point x="316" y="549" type="curve"/>
      <point x="269" y="503" type="line"/>
      <point x="205" y="560" type="line"/>
      <point x="241" y="595" type="line"/>
      <point x="214" y="606"/>
      <point x="185" y="614"/>
      <point x="154" y="616" type="curve"/>
      <point x="154" y="711" type="line"/>
      <point x="218" y="709"/>
      <point x="272" y="695"/>
      <point x="318" y="671" type="curve"/>
      <point x="359" y="711" type="line"/>
      <point x="423" y="654" type="line"/>
      <point x="389" y="621" type="line"/>
      <point x="477" y="540"/>
      <point x="515" y="413"/>
    </contour>
    <contour>
      <point x="380" y="232" type="curve" smooth="yes"/>
      <point x="380" y="303"/>
      <point x="346" y="355"/>
      <point x="277" y="355" type="curve" smooth="yes"/>
      <point x="208" y="355"/>
      <point x="175" y="304"/>
      <point x="175" y="232" type="curve" smooth="yes"/>
      <point x="175" y="160"/>
      <point x="208" y="111"/>
      <point x="277" y="111" type="curve" smooth="yes"/>
      <point x="346" y="111"/>
      <point x="380" y="167"/>
    </contour>
  </outline>
</glyph>
<glyph name="oslash" format="1">
  <advance width="555"/>
  <unicode hex="00F8"/>
  <outline>
    <contour>
      <point x="515" y="262" type="curve" smooth="yes"/>
      <point x="515" y="101"/>
      <point x="414" y="-11"/>
      <point x="277" y="-11" type="curve" smooth="yes"/>
      <point x="250" y="-11"/>
      <point x="224" y="-6"/>
      <point x="199" y="2" type="curve"/>
      <point x="172" y="-50" type="line"/>
      <point x="49" y="-50" type="line"/>
      <point x="109" y="63" type="line"/>
      <point x="66" y="111"/>
      <point x="40" y="180"/>
      <point x="40" y="262" type="curve" smooth="yes"/>
      <point x="40" y="423"/>
      <point x="140" y="536"/>
      <point x="277" y="536" type="curve" smooth="yes"/>
      <point x="304" y="536"/>
      <point x="329" y="532"/>
      <point x="353" y="523" type="curve"/>
      <point x="380" y="575" type="line"/>
      <point x="503" y="575" type="line"/>
      <point x="444" y="463" type="line"/>
      <point x="489" y="414"/>
      <point x="515" y="344"/>
    </contour>
    <contour>
      <point x="303" y="419" type="line"/>
      <point x="295" y="421"/>
      <point x="286" y="422"/>
      <point x="277" y="422" type="curve" smooth="yes"/>
      <point x="204" y="422"/>
      <point x="170" y="351"/>
      <point x="170" y="262" type="curve" smooth="yes"/>
      <point x="170" y="234"/>
      <point x="173" y="209"/>
      <point x="180" y="186" type="curve"/>
    </contour>
    <contour>
      <point x="385" y="262" type="curve" smooth="yes"/>
      <point x="385" y="291"/>
      <point x="381" y="318"/>
      <point x="373" y="342" type="curve"/>
      <point x="249" y="107" type="line"/>
      <point x="258" y="104"/>
      <point x="267" y="103"/>
      <point x="277" y="103" type="curve" smooth="yes"/>
      <point x="350" y="103"/>
      <point x="385" y="182"/>
    </contour>
  </outline>
</glyph>
<glyph name="Lslash" format="1">
  <advance width="635"/>
  <unicode hex="0141"/>
  <outline>
    <contour>
      <point x="596" y="0" type="line"/>
      <point x="105" y="0" type="line"/>
      <point x="105" y="236" type="line"/>
      <point x="40" y="186" type="line"/>
      <point x="40" y="321" type="line"/>
      <point x="105" y="371" type="line"/>
      <point x="105" y="700" type="line"/>
      <point x="243" y="700" type="line"/>
      <point x="243" y="457" type="line"/>
      <point x="359" y="543" type="line"/>
      <point x="359" y="408" type="line"/>
      <point x="243" y="322" type="line"/>
      <point x="243" y="138" type="line"/>
      <point x="596" y="138" type="line"/>
    </contour>
  </outline>
</glyph>
<glyph name="lslash" format="1">
  <advance width="322"/>
  <unicode hex="0142"/>
  <outline>
    <contour>
      <point x="287" y="353" type="line"/>
      <point x="229" y="313" type="line"/>
      <point x="229" y="0" type="line"/>
      <point x="93" y="0" type="line"/>
      <point x="93" y="239" type="line"/>
      <point x="35" y="199" type="line"/>
      <point x="35" y="334" type="line"/>
      <point x="93" y="374" type="line"/>
      <point x="93" y="660" type="line"/>
      <point x="229" y="729" type="line"/>
      <point x="229" y="447" type="line"/>
      <point x="287" y="488" type="line"/>
    </contour>
  </outline>
</glyph>
<glyph name="OE" format="1">
  <advance width="1055"/>
  <unicode hex="0152"/>
  <outline>
    <contour>
      <point x="996" y="0" type="line"/>
      <point x="525" y="0" type="line"/>
      <point x="525" y="63" type="line"/>
      <point x="494" y="21"/>
      <point x="439" y="-11"/>
      <point x="357" y="-11" type="curve" smooth="yes"/>
      <point x="166" y="-11"/>
      <point x="53" y="137"/>
      <point x="53" y="350" type="curve" smooth="yes"/>
      <point x="53" y="563"/>
      <point x="166" y="711"/>
      <point x="357" y="711" type="curve" smooth="yes"/>
      <point x="440" y="711"/>
      <point x="491" y="681"/>
      <point x="525" y="637" type="curve"/>
      <point x="525" y="700" type="line"/>
      <point x="981" y="700" type="line"/>
      <point x="981" y="563" type="line"/>
      <point x="645" y="563" type="line"/>
      <point x="645" y="442" type="line"/>
      <point x="836" y="442" type="line"/>
      <point x="836" y="306" type="line"/>
      <point x="645" y="306" type="line"/>
      <point x="645" y="137" type="line"/>
      <point x="996" y="137" type="line"/>
    </contour>
    <contour>
      <point x="517" y="350" type="curve" smooth="yes"/>
      <point x="517" y="475"/>
      <point x="470" y="572"/>
      <point x="357" y="572" type="curve" smooth="yes"/>
      <point x="244" y="572"/>
      <point x="197" y="475"/>
      <point x="197" y="350" type="curve" smooth="yes"/>
      <point x="197" y="225"/>
      <point x="244" y="128"/>
      <point x="357" y="128" type="curve" smooth="yes"/>
      <point x="470" y="128"/>
      <point x="517" y="225"/>
    </contour>
  </outline>
</glyph>
<glyph name="oe" format="1">
  <advance width="860"/>
  <unicode hex="0153"/>
  <outline>
    <contour>
      <point x="817" y="262" type="curve" smooth="yes"/>
      <point x="817" y="242"/>
      <point x="816" y="228"/>
      <point x="815" y="218" type="curve"/>
      <point x="501" y="218" type="line"/>
      <point x="506" y="146"/>
      <point x="559" y="119"/>
      <point x="609" y="119" type="curve" smooth="yes"/>
      <point x="647" y="119"/>
      <point x="679" y="133"/>
      <point x="699" y="156" type="curve"/>
      <point x="797" y="74" type="line"/>
      <point x="755" y="20"/>
      <point x="679" y="-11"/>
      <point x="609" y="-11" type="curve" smooth="yes"/>
      <point x="528" y="-11"/>
      <point x="473" y="19"/>
      <point x="437" y="64" type="curve"/>
      <point x="405" y="17"/>
      <point x="348" y="-11"/>
      <point x="277" y="-11" type="curve" smooth="yes"/>
      <point x="140" y="-11"/>
      <point x="40" y="101"/>
      <point x="40" y="262" type="curve" smooth="yes"/>
      <point x="40" y="423"/>
      <point x="140" y="536"/>
      <point x="277" y="536" type="curve" smooth="yes"/>
      <point x="346" y="536"/>
      <point x="405" y="507"/>
      <point x="438" y="459" type="curve"/>
      <point x="476" y="506"/>
      <point x="526" y="536"/>
      <point x="596" y="536" type="curve" smooth="yes"/>
      <point x="736" y="536"/>
      <point x="817" y="412"/>
    </contour>
    <contour>
      <point x="683" y="322" type="line"/>
      <point x="679" y="369"/>
      <point x="651" y="416"/>
      <point x="589" y="416" type="curve" smooth="yes"/>
      <point x="539" y="416"/>
      <point x="508" y="375"/>
      <point x="503" y="322" type="curve"/>
    </contour>
    <contour>
      <point x="375" y="262" type="curve" smooth="yes"/>
      <point x="375" y="342"/>
      <point x="343" y="403"/>
      <point x="277" y="403" type="curve" smooth="yes"/>
      <point x="211" y="403"/>
      <point x="180" y="343"/>
      <point x="180" y="262" type="curve" smooth="yes"/>
      <point x="180" y="181"/>
      <point x="211" y="122"/>
      <point x="277" y="122" type="curve" smooth="yes"/>
      <point x="343" y="122"/>
      <point x="375" y="189"/>
    </contour>
  </outline>
</glyph>
<glyph name="florin" format="1">
  <advance width="417"/>
  <unicode hex="0192"/>
  <outline>
    <contour>
      <point x="355" y="588" type="line"/>
      <point x="341" y="595"/>
      <point x="327" y="599"/>
      <point x="307" y="599" type="curve" smooth="yes"/>
      <point x="266" y="599"/>
      <point x="256" y="586"/>
      <point x="256" y="557" type="curve" smooth="yes"/>
      <point x="256" y="525" type="line"/>
      <point x="345" y="525" type="line"/>
      <point x="345" y="398" type="line"/>
      <point x="256" y="398" type="line"/>
      <point x="256" y="-124" type="line"/>
      <point x="118" y="-193" type="line"/>
      <point x="118" y="398" type="line"/>
      <point x="55" y="398" type="line"/>
      <point x="55" y="525" type="line"/>
      <point x="118" y="525" type="line"/>
      <point x="118" y="573" type="line" smooth="yes"/>
      <point x="118" y="671"/>
      <point x="172" y="711"/>
      <point x="268" y="711" type="curve" smooth="yes"/>
      <point x="302" y="711"/>
      <point x="331" y="706"/>
      <point x="355" y="696" type="curve"/>
    </contour>
  </outline>
</glyph>
<glyph name="circumflex" format="1">
  <advance width="500"/>
  <unicode hex="02C6"/>
  <outline>
    <contour>
      <point x="442" y="595" type="line"/>
      <point x="349" y="595" type="line"/>
      <point x="249" y="670" type="line"/>
      <point x="149" y="595" type="line"/>
      <point x="58" y="595" type="line"/>
      <point x="180" y="755" type="line"/>
      <point x="320" y="755" type="line"/>
    </contour>
  </outline>
</glyph>
<glyph name="caron" format="1">
  <advance width="500"/>
  <unicode hex="02C7"/>
  <outline>
    <contour>
      <point x="442" y="755" type="line"/>
      <point x="320" y="595" type="line"/>
      <point x="180" y="595" type="line"/>
      <point x="58" y="755" type="line"/>
      <point x="151" y="755" type="line"/>
      <point x="251" y="680" type="line"/>
      <point x="351" y="755" type="line"/>
    </contour>
  </outline>
</glyph>
<glyph name="breve" format="1">
  <advance width="500"/>
  <unicode hex="02D8"/>
  <outline>
    <contour>
      <point x="437" y="755" type="line"/>
      <point x="423" y="654"/>
      <point x="353" y="595"/>
      <point x="249" y="595" type="curve" smooth="yes"/>
      <point x="143" y="595"/>
      <point x="77" y="654"/>
      <point x="63" y="755" type="curve"/>
      <point x="147" y="755" type="line"/>
      <point x="160" y="711"/>
      <point x="192" y="690"/>
      <point x="251" y="690" type="curve" smooth="yes"/>
      <point x="314" y="690"/>
      <point x="343" y="711"/>
      <point x="356" y="755" type="curve"/>
    </contour>
  </outline>
</glyph>
<glyph name="dotaccent" format="1">
  <advance width="500"/>
  <unicode hex="02D9"/>
  <outline>
    <contour>
      <point x="327" y="672" type="curve" smooth="yes"/>
      <point x="327" y="631"/>
      <point x="291" y="595"/>
      <point x="250" y="595" type="curve" smooth="yes"/>
      <point x="207" y="595"/>
      <point x="171" y="631"/>
      <point x="171" y="672" type="curve" smooth="yes"/>
      <point x="171" y="715"/>
      <point x="207" y="750"/>
      <point x="250" y="750" type="curve" smooth="yes"/>
      <point x="291" y="750"/>
      <point x="327" y="715"/>
    </contour>
  </outline>
</glyph>
<glyph name="ring" format="1">
  <advance width="500"/>
  <unicode hex="02DA"/>
  <outline>
    <contour>
      <point x="385" y="728" type="curve" smooth="yes"/>
      <point x="385" y="651"/>
      <point x="327" y="595"/>
      <point x="250" y="595" type="curve" smooth="yes"/>
      <point x="173" y="595"/>
      <point x="115" y="651"/>
      <point x="115" y="728" type="curve" smooth="yes"/>
      <point x="115" y="805"/>
      <point x="173" y="863"/>
      <point x="250" y="863" type="curve" smooth="yes"/>
      <point x="327" y="863"/>
      <point x="385" y="805"/>
    </contour>
    <contour>
      <point x="309" y="728" type="curve" smooth="yes"/>
      <point x="309" y="762"/>
      <point x="283" y="788"/>
      <point x="250" y="788" type="curve" smooth="yes"/>
      <point x="217" y="788"/>
      <point x="191" y="762"/>
      <point x="191" y="728" type="curve" smooth="yes"/>
      <point x="191" y="694"/>
      <point x="217" y="668"/>
      <point x="250" y="668" type="curve" smooth="yes"/>
      <point x="283" y="668"/>
      <point x="309" y="694"/>
    </contour>
  </outline>
</glyph>
<glyph name="ogonek" format="1">
  <advance width="500"/>
  <unicode hex="02DB"/>
  <outline>
    <contour>
      <point x="379" y="-146" type="line"/>
      <point x="342" y="-174"/>
      <point x="301" y="-193"/>
      <point x="253" y="-193" type="curve" smooth="yes"/>
      <point x="188" y="-193"/>
      <point x="153" y="-164"/>
      <point x="153" y="-110" type="curve" smooth="yes"/>
      <point x="153" y="-66"/>
      <point x="183" y="-31"/>
      <point x="229" y="0" type="curve"/>
      <point x="289" y="0" type="line"/>
      <point x="247" y="-48"/>
      <point x="238" y="-69"/>
      <point x="238" y="-99" type="curve" smooth="yes"/>
      <point x="238" y="-118"/>
      <point x="254" y="-130"/>
      <point x="273" y="-130" type="curve" smooth="yes"/>
      <point x="301" y="-130"/>
      <point x="324" y="-122"/>
      <point x="353" y="-106" type="curve"/>
    </contour>
  </outline>
</glyph>
<glyph name="tilde" format="1">
  <advance width="500"/>
  <unicode hex="02DC"/>
  <outline>
    <contour>
      <point x="449" y="736" type="line"/>
      <point x="449" y="647"/>
      <point x="402" y="592"/>
      <point x="334" y="592" type="curve" smooth="yes"/>
      <point x="292" y="592"/>
      <point x="273" y="600"/>
      <point x="233" y="623" type="curve" smooth="yes"/>
      <point x="203" y="640"/>
      <point x="194" y="643"/>
      <point x="181" y="643" type="curve" smooth="yes"/>
      <point x="162" y="643"/>
      <point x="153" y="630"/>
      <point x="147" y="595" type="curve"/>
      <point x="57" y="595" type="line"/>
      <point x="57" y="684"/>
      <point x="104" y="739"/>
      <point x="172" y="739" type="curve" smooth="yes"/>
      <point x="214" y="739"/>
      <point x="233" y="731"/>
      <point x="273" y="708" type="curve" smooth="yes"/>
      <point x="303" y="691"/>
      <point x="312" y="688"/>
      <point x="325" y="688" type="curve" smooth="yes"/>
      <point x="344" y="688"/>
      <point x="353" y="701"/>
      <point x="359" y="736" type="curve"/>
    </contour>
  </outline>
</glyph>
<glyph name="hungarumlaut" format="1">
  <advance width="500"/>
  <unicode hex="02DD"/>
  <outline>
    <contour>
      <point x="514" y="755" type="line"/>
      <point x="369" y="595" type="line"/>
      <point x="252" y="595" type="line"/>
      <point x="339" y="755" type="line"/>
    </contour>
    <contour>
      <point x="294" y="755" type="line"/>
      <point x="149" y="595" type="line"/>
      <point x="32" y="595" type="line"/>
      <point x="119" y="755" type="line"/>
    </contour>
  </outline>
</glyph>
<glyph name="emdash" format="1">
  <advance width="620"/>
  <unicode hex="2014"/>
  <outline>
    <contour>
      <point x="565" y="299" type="line"/>
      <point x="55" y="299" type="line"/>
      <point x="55" y="427" type="line"/>
      <point x="565" y="427" type="line"/>
    </contour>
  </outline>
</glyph>
<glyph name="quoteleft" format="1">
  <advance width="281"/>
  <unicode hex="2018"/>
  <unicode hex="02BB"/>
  <outline>
    <contour>
      <point x="220" y="700" type="line"/>
      <point x="206" y="419" type="line"/>
      <point x="43" y="419" type="line"/>
      <point x="125" y="700" type="line"/>
    </contour>
  </outline>
</glyph>
<glyph name="quoteright" format="1">
  <advance width="281"/>
  <unicode hex="2019"/>
  <unicode hex="02BC"/>
  <outline>
    <contour>
      <point x="238" y="700" type="line"/>
      <point x="156" y="419" type="line"/>
      <point x="61" y="419" type="line"/>
      <point x="75" y="700" type="line"/>
    </contour>
  </outline>
</glyph>
<glyph name="quotesinglbase" format="1">
  <advance width="281"/>
  <unicode hex="201A"/>
  <outline>
    <contour>
      <point x="238" y="169" type="line"/>
      <point x="156" y="-112" type="line"/>
      <point x="61" y="-112" type="line"/>
      <point x="75" y="169" type="line"/>
    </contour>
  </outline>
</glyph>
<glyph name="quotedblleft" format="1">
  <advance width="542"/>
  <unicode hex="201C"/>
  <outline>
    <contour>
      <point x="481" y="700" type="line"/>
      <point x="467" y="419" type="line"/>
      <point x="304" y="419" type="line"/>
      <point x="386" y="700" type="line"/>
    </contour>
    <contour>
      <point x="220" y="700" type="line"/>
      <point x="206" y="419" type="line"/>
      <point x="43" y="419" type="line"/>
      <point x="125" y="700" type="line"/>
    </contour>
  </outline>
</glyph>
<glyph name="quotedblright" format="1">
  <advance width="542"/>
  <unicode hex="201D"/>
  <outline>
    <contour>
      <point x="499" y="700" type="line"/>
      <point x="417" y="419" type="line"/>
      <point x="322" y="419" type="line"/>
      <point x="336" y="700" type="line"/>
    </contour>
    <contour>
      <point x="238" y="700" type="line"/>
      <point x="156" y="419" type="line"/>
      <point x="61" y="419" type="line"/>
      <point x="75" y="700" type="line"/>
    </contour>
  </outline>
</glyph>
<glyph name="quotedblbase" format="1">
  <advance width="542"/>
  <unicode hex="201E"/>
  <outline>
    <contour>
      <point x="499" y="169" type="line"/>
      <point x="417" y="-112" type="line"/>
      <point x="322" y="-112" type="line"/>
      <point x="336" y="169" type="line"/>
    </contour>
    <contour>
      <point x="238" y="169" type="line"/>
      <point x="156" y="-112" type="line"/>
      <point x="61" y="-112" type="line"/>
      <point x="75" y="169" type="line"/>
    </contour>
  </outline>
</glyph>
<glyph name="dagger" format="1">
  <advance width="594"/>
  <unicode hex="2020"/>
  <outline>
    <contour>
      <point x="539" y="366" type="line"/>
      <point x="365" y="366" type="line"/>
      <point x="365" y="-100" type="line"/>
      <point x="229" y="-100" type="line"/>
      <point x="229" y="366" type="line"/>
      <point x="55" y="366" type="line"/>
      <point x="55" y="491" type="line"/>
      <point x="229" y="491" type="line"/>
      <point x="229" y="700" type="line"/>
      <point x="365" y="700" type="line"/>
      <point x="365" y="491" type="line"/>
      <point x="539" y="491" type="line"/>
    </contour>
  </outline>
</glyph>
<glyph name="daggerdbl" format="1">
  <advance width="594"/>
  <unicode hex="2021"/>
  <outline>
    <contour>
      <point x="539" y="109" type="line"/>
      <point x="363" y="109" type="line"/>
      <point x="363" y="-100" type="line"/>
      <point x="231" y="-100" type="line"/>
      <point x="231" y="109" type="line"/>
      <point x="55" y="109" type="line"/>
      <point x="55" y="232" type="line"/>
      <point x="231" y="232" type="line"/>
      <point x="231" y="368" type="line"/>
      <point x="55" y="368" type="line"/>
      <point x="55" y="491" type="line"/>
      <point x="231" y="491" type="line"/>
      <point x="231" y="700" type="line"/>
      <point x="363" y="700" type="line"/>
      <point x="363" y="491" type="line"/>
      <point x="539" y="491" type="line"/>
      <point x="539" y="368" type="line"/>
      <point x="363" y="368" type="line"/>
      <point x="363" y="232" type="line"/>
      <point x="539" y="232" type="line"/>
    </contour>
  </outline>
</glyph>
<glyph name="ellipsis" format="1">
  <advance width="816"/>
  <unicode hex="2026"/>
  <outline>
    <contour>
      <point x="774" y="83" type="curve" smooth="yes"/>
      <point x="774" y="32"/>
      <point x="731" y="-11"/>
      <point x="680" y="-11" type="curve" smooth="yes"/>
      <point x="629" y="-11"/>
      <point x="586" y="32"/>
      <point x="586" y="83" type="curve" smooth="yes"/>
      <point x="586" y="134"/>
      <point x="629" y="177"/>
      <point x="680" y="177" type="curve" smooth="yes"/>
      <point x="731" y="177"/>
      <point x="774" y="134"/>
    </contour>
    <contour>
      <point x="502" y="83" type="curve" smooth="yes"/>
      <point x="502" y="32"/>
      <point x="459" y="-11"/>
      <point x="408" y="-11" type="curve" smooth="yes"/>
      <point x="357" y="-11"/>
      <point x="314" y="32"/>
      <point x="314" y="83" type="curve" smooth="yes"/>
      <point x="314" y="134"/>
      <point x="357" y="177"/>
      <point x="408" y="177" type="curve" smooth="yes"/>
      <point x="459" y="177"/>
      <point x="502" y="134"/>
    </contour>
    <contour>
      <point x="230" y="83" type="curve" smooth="yes"/>
      <point x="230" y="32"/>
      <point x="187" y="-11"/>
      <point x="136" y="-11" type="curve" smooth="yes"/>
      <point x="85" y="-11"/>
      <point x="42" y="32"/>
      <point x="42" y="83" type="curve" smooth="yes"/>
      <point x="42" y="134"/>
      <point x="85" y="177"/>
      <point x="136" y="177" type="curve" smooth="yes"/>
      <point x="187" y="177"/>
      <point x="230" y="134"/>
    </contour>
  </outline>
</glyph>
<glyph name="perthousand" format="1">
  <advance width="1415"/>
  <unicode hex="2030"/>
  <outline>
    <contour>
      <point x="407" y="494" type="curve" smooth="yes"/>
      <point x="407" y="361"/>
      <point x="328" y="276"/>
      <point x="221" y="276" type="curve" smooth="yes"/>
      <point x="114" y="276"/>
      <point x="38" y="359"/>
      <point x="38" y="492" type="curve" smooth="yes"/>
      <point x="38" y="627"/>
      <point x="114" y="711"/>
      <point x="223" y="711" type="curve" smooth="yes"/>
      <point x="334" y="711"/>
      <point x="407" y="627"/>
    </contour>
    <contour>
      <point x="774" y="700" type="line"/>
      <point x="345" y="0" type="line"/>
      <point x="224" y="0" type="line"/>
      <point x="653" y="700" type="line"/>
    </contour>
    <contour>
      <point x="1385" y="207" type="curve" smooth="yes"/>
      <point x="1385" y="74"/>
      <point x="1306" y="-11"/>
      <point x="1199" y="-11" type="curve" smooth="yes"/>
      <point x="1092" y="-11"/>
      <point x="1016" y="72"/>
      <point x="1016" y="205" type="curve" smooth="yes"/>
      <point x="1016" y="340"/>
      <point x="1092" y="424"/>
      <point x="1201" y="424" type="curve" smooth="yes"/>
      <point x="1312" y="424"/>
      <point x="1385" y="340"/>
    </contour>
    <contour>
      <point x="961" y="207" type="curve" smooth="yes"/>
      <point x="961" y="74"/>
      <point x="882" y="-11"/>
      <point x="775" y="-11" type="curve" smooth="yes"/>
      <point x="668" y="-11"/>
      <point x="592" y="72"/>
      <point x="592" y="205" type="curve" smooth="yes"/>
      <point x="592" y="340"/>
      <point x="668" y="424"/>
      <point x="777" y="424" type="curve" smooth="yes"/>
      <point x="888" y="424"/>
      <point x="961" y="340"/>
    </contour>
    <contour>
      <point x="295" y="492" type="curve" smooth="yes"/>
      <point x="295" y="575"/>
      <point x="270" y="618"/>
      <point x="222" y="618" type="curve" smooth="yes"/>
      <point x="174" y="618"/>
      <point x="150" y="577"/>
      <point x="150" y="494" type="curve" smooth="yes"/>
      <point x="150" y="411"/>
      <point x="175" y="368"/>
      <point x="223" y="368" type="curve" smooth="yes"/>
      <point x="271" y="368"/>
      <point x="295" y="416"/>
    </contour>
    <contour>
      <point x="1273" y="205" type="curve" smooth="yes"/>
      <point x="1273" y="288"/>
      <point x="1248" y="331"/>
      <point x="1200" y="331" type="curve" smooth="yes"/>
      <point x="1152" y="331"/>
      <point x="1128" y="290"/>
      <point x="1128" y="207" type="curve" smooth="yes"/>
      <point x="1128" y="124"/>
      <point x="1153" y="81"/>
      <point x="1201" y="81" type="curve" smooth="yes"/>
      <point x="1249" y="81"/>
      <point x="1273" y="129"/>
    </contour>
    <contour>
      <point x="849" y="205" type="curve" smooth="yes"/>
      <point x="849" y="288"/>
      <point x="824" y="331"/>
      <point x="776" y="331" type="curve" smooth="yes"/>
      <point x="728" y="331"/>
      <point x="704" y="290"/>
      <point x="704" y="207" type="curve" smooth="yes"/>
      <point x="704" y="124"/>
      <point x="729" y="81"/>
      <point x="777" y="81" type="curve" smooth="yes"/>
      <point x="825" y="81"/>
      <point x="849" y="129"/>
    </contour>
  </outline>
</glyph>
<glyph name="guilsinglleft" format="1">
  <advance width="376"/>
  <unicode hex="2039"/>
  <outline>
    <contour>
      <point x="336" y="0" type="line"/>
      <point x="193" y="0" type="line"/>
      <point x="30" y="262" type="line"/>
      <point x="193" y="525" type="line"/>
      <point x="336" y="525" type="line"/>
      <point x="178" y="263" type="line"/>
    </contour>
  </outline>
</glyph>
<glyph name="guilsinglright" format="1">
  <advance width="376"/>
  <unicode hex="203A"/>
  <outline>
    <contour>
      <point x="346" y="263" type="line"/>
      <point x="183" y="0" type="line"/>
      <point x="40" y="0" type="line"/>
      <point x="198" y="262" type="line"/>
      <point x="40" y="525" type="line"/>
      <point x="183" y="525" type="line"/>
    </contour>
  </outline>
</glyph>
<glyph name="fraction" format="1">
  <advance width="493"/>
  <unicode hex="2044"/>
  <outline>
    <contour>
      <point x="555" y="700" type="line"/>
      <point x="86" y="0" type="line"/>
      <point x="-62" y="0" type="line"/>
      <point x="407" y="700" type="line"/>
    </contour>
  </outline>
</glyph>
<glyph name="Euro" format="1">
  <advance width="638"/>
  <unicode hex="20AC"/>
  <outline>
    <contour>
      <point x="203" y="470" type="curve"/>
      <point x="406" y="470" type="line"/>
      <point x="406" y="378" type="line"/>
      <point x="188" y="378" type="line"/>
      <point x="187" y="369"/>
      <point x="187" y="359"/>
      <point x="187" y="349" type="curve" smooth="yes"/>
      <point x="187" y="339"/>
      <point x="187" y="330"/>
      <point x="188" y="321" type="curve"/>
      <point x="406" y="321" type="line"/>
      <point x="406" y="229" type="line"/>
      <point x="203" y="229" type="line"/>
      <point x="229" y="154"/>
      <point x="280" y="121"/>
      <point x="345" y="121" type="curve" smooth="yes"/>
      <point x="413" y="121"/>
      <point x="446" y="153"/>
      <point x="487" y="218" type="curve"/>
      <point x="601" y="150" type="line"/>
      <point x="551" y="65"/>
      <point x="479" y="-11"/>
      <point x="343" y="-11" type="curve" smooth="yes"/>
      <point x="155" y="-11"/>
      <point x="50" y="136"/>
      <point x="50" y="350" type="curve" smooth="yes"/>
      <point x="50" y="577"/>
      <point x="168" y="711"/>
      <point x="345" y="711" type="curve" smooth="yes"/>
      <point x="483" y="711"/>
      <point x="543" y="649"/>
      <point x="593" y="534" type="curve"/>
      <point x="475" y="477" type="line"/>
      <point x="442" y="544"/>
      <point x="413" y="579"/>
      <point x="343" y="579" type="curve" smooth="yes"/>
      <point x="279" y="579"/>
      <point x="228" y="547"/>
    </contour>
  </outline>
</glyph>
<glyph name="uni2117" format="1">
  <advance width="836"/>
  <unicode hex="2117"/>
  <outline>
    <contour>
      <point x="779" y="350" type="curve" smooth="yes"/>
      <point x="779" y="145"/>
      <point x="623" y="-11"/>
      <point x="418" y="-11" type="curve" smooth="yes"/>
      <point x="213" y="-11"/>
      <point x="57" y="145"/>
      <point x="57" y="350" type="curve" smooth="yes"/>
      <point x="57" y="555"/>
      <point x="213" y="711"/>
      <point x="418" y="711" type="curve" smooth="yes"/>
      <point x="623" y="711"/>
      <point x="779" y="555"/>
    </contour>
    <contour>
      <point x="715" y="350" type="curve" smooth="yes"/>
      <point x="715" y="519"/>
      <point x="587" y="647"/>
      <point x="418" y="647" type="curve" smooth="yes"/>
      <point x="249" y="647"/>
      <point x="121" y="519"/>
      <point x="121" y="350" type="curve" smooth="yes"/>
      <point x="121" y="181"/>
      <point x="249" y="53"/>
      <point x="418" y="53" type="curve" smooth="yes"/>
      <point x="587" y="53"/>
      <point x="715" y="181"/>
    </contour>
    <contour>
      <point x="597" y="422" type="curve" smooth="yes"/>
      <point x="597" y="332"/>
      <point x="536" y="294"/>
      <point x="455" y="294" type="curve" smooth="yes"/>
      <point x="373" y="294" type="line"/>
      <point x="373" y="153" type="line"/>
      <point x="290" y="153" type="line"/>
      <point x="290" y="547" type="line"/>
      <point x="462" y="547" type="line" smooth="yes"/>
      <point x="536" y="547"/>
      <point x="597" y="506"/>
    </contour>
    <contour>
      <point x="512" y="421" type="curve" smooth="yes"/>
      <point x="512" y="456"/>
      <point x="491" y="471"/>
      <point x="456" y="471" type="curve" smooth="yes"/>
      <point x="373" y="471" type="line"/>
      <point x="373" y="368" type="line"/>
      <point x="456" y="368" type="line" smooth="yes"/>
      <point x="493" y="368"/>
      <point x="512" y="387"/>
    </contour>
  </outline>
</glyph>
<glyph name="trademark" format="1">
  <advance width="830"/>
  <unicode hex="2122"/>
  <outline>
    <contour>
      <point x="310" y="618" type="line"/>
      <point x="212" y="618" type="line"/>
      <point x="212" y="306" type="line"/>
      <point x="117" y="306" type="line"/>
      <point x="117" y="618" type="line"/>
      <point x="19" y="618" type="line"/>
      <point x="19" y="700" type="line"/>
      <point x="310" y="700" type="line"/>
    </contour>
    <contour>
      <point x="789" y="306" type="line"/>
      <point x="700" y="306" type="line"/>
      <point x="700" y="501" type="line" smooth="yes"/>
      <point x="700" y="515"/>
      <point x="702" y="531"/>
      <point x="702" y="545" type="curve"/>
      <point x="697" y="533"/>
      <point x="690" y="520"/>
      <point x="684" y="507" type="curve" smooth="yes"/>
      <point x="581" y="294" type="line"/>
      <point x="480" y="507" type="line" smooth="yes"/>
      <point x="474" y="519"/>
      <point x="468" y="533"/>
      <point x="463" y="544" type="curve"/>
      <point x="464" y="530"/>
      <point x="465" y="514"/>
      <point x="465" y="501" type="curve" smooth="yes"/>
      <point x="465" y="306" type="line"/>
      <point x="376" y="306" type="line"/>
      <point x="376" y="700" type="line"/>
      <point x="470" y="700" type="line"/>
      <point x="555" y="530" type="line" smooth="yes"/>
      <point x="566" y="509"/>
      <point x="579" y="482"/>
      <point x="583" y="465" type="curve"/>
      <point x="588" y="482"/>
      <point x="600" y="508"/>
      <point x="611" y="530" type="curve" smooth="yes"/>
      <point x="694" y="700" type="line"/>
      <point x="789" y="700" type="line"/>
    </contour>
  </outline>
</glyph>
<glyph name="arrowright" format="1">
  <advance width="650"/>
  <unicode hex="2192"/>
  <outline>
    <contour>
      <point x="630" y="347" type="line"/>
      <point x="427" y="194" type="line"/>
      <point x="412" y="185"/>
      <point x="398" y="187"/>
      <point x="391" y="192" type="curve" smooth="yes"/>
      <point x="377" y="202"/>
      <point x="372" y="214"/>
      <point x="378" y="234" type="curve" smooth="yes"/>
      <point x="392" y="281" type="line"/>
      <point x="45" y="281" type="line"/>
      <point x="45" y="411" type="line"/>
      <point x="392" y="411" type="line"/>
      <point x="378" y="460" type="line" smooth="yes"/>
      <point x="373" y="479"/>
      <point x="376" y="490"/>
      <point x="391" y="500" type="curve" smooth="yes"/>
      <point x="398" y="505"/>
      <point x="412" y="508"/>
      <point x="427" y="497" type="curve" smooth="yes"/>
    </contour>
  </outline>
</glyph>
<glyph name="arrowboth" format="1">
  <advance width="800"/>
  <unicode hex="2194"/>
  <outline>
    <contour>
      <point x="780" y="347" type="line"/>
      <point x="577" y="194" type="line"/>
      <point x="562" y="185"/>
      <point x="548" y="187"/>
      <point x="541" y="192" type="curve" smooth="yes"/>
      <point x="527" y="202"/>
      <point x="522" y="214"/>
      <point x="528" y="234" type="curve" smooth="yes"/>
      <point x="542" y="281" type="line"/>
      <point x="258" y="281" type="line"/>
      <point x="272" y="232" type="line" smooth="yes"/>
      <point x="277" y="213"/>
      <point x="274" y="202"/>
      <point x="259" y="192" type="curve" smooth="yes"/>
      <point x="252" y="187"/>
      <point x="238" y="184"/>
      <point x="223" y="195" type="curve" smooth="yes"/>
      <point x="20" y="345" type="line"/>
      <point x="223" y="498" type="line"/>
      <point x="238" y="507"/>
      <point x="252" y="505"/>
      <point x="259" y="500" type="curve" smooth="yes"/>
      <point x="273" y="490"/>
      <point x="278" y="478"/>
      <point x="272" y="458" type="curve" smooth="yes"/>
      <point x="258" y="411" type="line"/>
      <point x="542" y="411" type="line"/>
      <point x="528" y="460" type="line" smooth="yes"/>
      <point x="523" y="479"/>
      <point x="526" y="490"/>
      <point x="541" y="500" type="curve" smooth="yes"/>
      <point x="548" y="505"/>
      <point x="562" y="508"/>
      <point x="577" y="497" type="curve" smooth="yes"/>
    </contour>
  </outline>
</glyph>
<glyph name="arrowupdn" format="1">
  <advance width="440"/>
  <unicode hex="2195"/>
  <outline>
    <contour>
      <point x="374" y="224" type="curve" smooth="yes"/>
      <point x="379" y="217"/>
      <point x="381" y="203"/>
      <point x="372" y="188" type="curve"/>
      <point x="219" y="-15" type="line"/>
      <point x="69" y="188" type="line" smooth="yes"/>
      <point x="58" y="203"/>
      <point x="61" y="217"/>
      <point x="66" y="224" type="curve" smooth="yes"/>
      <point x="76" y="239"/>
      <point x="87" y="242"/>
      <point x="106" y="237" type="curve" smooth="yes"/>
      <point x="155" y="223" type="line"/>
      <point x="155" y="477" type="line"/>
      <point x="106" y="463" type="line" smooth="yes"/>
      <point x="87" y="458"/>
      <point x="76" y="461"/>
      <point x="66" y="476" type="curve" smooth="yes"/>
      <point x="61" y="483"/>
      <point x="58" y="497"/>
      <point x="69" y="512" type="curve" smooth="yes"/>
      <point x="219" y="715" type="line"/>
      <point x="372" y="512" type="line"/>
      <point x="381" y="497"/>
      <point x="379" y="483"/>
      <point x="374" y="476" type="curve" smooth="yes"/>
      <point x="364" y="462"/>
      <point x="352" y="457"/>
      <point x="332" y="463" type="curve" smooth="yes"/>
      <point x="285" y="477" type="line"/>
      <point x="285" y="223" type="line"/>
      <point x="332" y="237" type="line" smooth="yes"/>
      <point x="352" y="243"/>
      <point x="364" y="238"/>
    </contour>
  </outline>
</glyph>
<glyph name="radical" format="1">
  <advance width="677"/>
  <unicode hex="221A"/>
  <outline>
    <contour>
      <point x="641" y="700" type="line"/>
      <point x="360" y="0" type="line"/>
      <point x="211" y="0" type="line"/>
      <point x="38" y="340" type="line"/>
      <point x="187" y="340" type="line"/>
      <point x="227" y="259" type="line" smooth="yes"/>
      <point x="252" y="209"/>
      <point x="274" y="157"/>
      <point x="285" y="130" type="curve"/>
      <point x="294" y="159"/>
      <point x="315" y="214"/>
      <point x="333" y="263" type="curve" smooth="yes"/>
      <point x="496" y="700" type="line"/>
    </contour>
  </outline>
</glyph>
<glyph name="apple" format="1">
  <advance width="800"/>
  <unicode hex="F8FF"/>
  <outline>
    <contour>
      <point x="780" y="350" type="line"/>
      <point x="612" y="218" type="line"/>
      <point x="600" y="212"/>
      <point x="589" y="213"/>
      <point x="584" y="216" type="curve" smooth="yes"/>
      <point x="571" y="224"/>
      <point x="568" y="234"/>
      <point x="572" y="252" type="curve"/>
      <point x="592" y="297" type="line"/>
      <point x="451" y="297" type="line"/>
      <point x="451" y="173" type="line"/>
      <point x="499" y="192" type="line" smooth="yes"/>
      <point x="514" y="198"/>
      <point x="524" y="194"/>
      <point x="532" y="181" type="curve" smooth="yes"/>
      <point x="535" y="176"/>
      <point x="538" y="164"/>
      <point x="529" y="153" type="curve" smooth="yes"/>
      <point x="400" y="-15" type="line"/>
      <point x="268" y="153" type="line"/>
      <point x="262" y="164"/>
      <point x="263" y="176"/>
      <point x="266" y="181" type="curve" smooth="yes"/>
      <point x="274" y="193"/>
      <point x="284" y="197"/>
      <point x="301" y="192" type="curve"/>
      <point x="347" y="173" type="line"/>
      <point x="347" y="297" type="line"/>
      <point x="208" y="297" type="line"/>
      <point x="228" y="251" type="line"/>
      <point x="233" y="235"/>
      <point x="229" y="224"/>
      <point x="216" y="216" type="curve" smooth="yes"/>
      <point x="211" y="213"/>
      <point x="200" y="212"/>
      <point x="189" y="218" type="curve"/>
      <point x="20" y="350" type="line"/>
      <point x="189" y="479" type="line" smooth="yes"/>
      <point x="200" y="488"/>
      <point x="211" y="485"/>
      <point x="216" y="482" type="curve" smooth="yes"/>
      <point x="230" y="474"/>
      <point x="232" y="464"/>
      <point x="228" y="449" type="curve"/>
      <point x="208" y="401" type="line"/>
      <point x="347" y="401" type="line"/>
      <point x="347" y="527" type="line"/>
      <point x="301" y="508" type="line" smooth="yes"/>
      <point x="285" y="501"/>
      <point x="274" y="507"/>
      <point x="266" y="519" type="curve" smooth="yes"/>
      <point x="263" y="524"/>
      <point x="262" y="536"/>
      <point x="268" y="547" type="curve"/>
      <point x="400" y="715" type="line"/>
      <point x="529" y="547" type="line" smooth="yes"/>
      <point x="538" y="536"/>
      <point x="535" y="524"/>
      <point x="532" y="519" type="curve" smooth="yes"/>
      <point x="524" y="506"/>
      <point x="514" y="502"/>
      <point x="499" y="508" type="curve" smooth="yes"/>
      <point x="451" y="527" type="line"/>
      <point x="451" y="401" type="line"/>
      <point x="592" y="401" type="line"/>
      <point x="572" y="449" type="line"/>
      <point x="568" y="464"/>
      <point x="570" y="474"/>
      <point x="584" y="482" type="curve" smooth="yes"/>
      <point x="589" y="485"/>
      <point x="599" y="487"/>
      <point x="612" y="479" type="curve"/>
    </contour>
  </outline>
</glyph>
<glyph name="fi" format="1">
  <advance width="645"/>
  <unicode hex="FB01"/>
  <outline>
    <contour>
      <point x="583" y="647" type="curve" smooth="yes"/>
      <point x="583" y="604"/>
      <point x="547" y="568"/>
      <point x="504" y="568" type="curve" smooth="yes"/>
      <point x="461" y="568"/>
      <point x="425" y="604"/>
      <point x="425" y="647" type="curve" smooth="yes"/>
      <point x="425" y="690"/>
      <point x="461" y="726"/>
      <point x="504" y="726" type="curve" smooth="yes"/>
      <point x="547" y="726"/>
      <point x="583" y="690"/>
    </contour>
    <contour>
      <point x="338" y="600" type="line"/>
      <point x="324" y="607"/>
      <point x="310" y="611"/>
      <point x="290" y="611" type="curve" smooth="yes"/>
      <point x="249" y="611"/>
      <point x="239" y="598"/>
      <point x="239" y="569" type="curve" smooth="yes"/>
      <point x="239" y="525" type="line"/>
      <point x="328" y="525" type="line"/>
      <point x="328" y="395" type="line"/>
      <point x="239" y="395" type="line"/>
      <point x="239" y="0" type="line"/>
      <point x="101" y="0" type="line"/>
      <point x="101" y="395" type="line"/>
      <point x="38" y="395" type="line"/>
      <point x="38" y="525" type="line"/>
      <point x="101" y="525" type="line"/>
      <point x="101" y="588" type="line" smooth="yes"/>
      <point x="101" y="686"/>
      <point x="155" y="726"/>
      <point x="251" y="726" type="curve" smooth="yes"/>
      <point x="285" y="726"/>
      <point x="314" y="721"/>
      <point x="338" y="711" type="curve"/>
    </contour>
    <contour>
      <point x="573" y="0" type="line"/>
      <point x="435" y="0" type="line"/>
      <point x="435" y="525" type="line"/>
      <point x="573" y="525" type="line"/>
    </contour>
  </outline>
</glyph>
<glyph name="fl" format="1">
  <advance width="645"/>
  <unicode hex="FB02"/>
  <outline>
    <contour>
      <point x="573" y="0" type="line"/>
      <point x="435" y="0" type="line"/>
      <point x="435" y="660" type="line"/>
      <point x="573" y="729" type="line"/>
    </contour>
    <contour>
      <point x="338" y="600" type="line"/>
      <point x="324" y="607"/>
      <point x="310" y="611"/>
      <point x="290" y="611" type="curve" smooth="yes"/>
      <point x="249" y="611"/>
      <point x="239" y="598"/>
      <point x="239" y="569" type="curve" smooth="yes"/>
      <point x="239" y="525" type="line"/>
      <point x="328" y="525" type="line"/>
      <point x="328" y="395" type="line"/>
      <point x="239" y="395" type="line"/>
      <point x="239" y="0" type="line"/>
      <point x="101" y="0" type="line"/>
      <point x="101" y="395" type="line"/>
      <point x="38" y="395" type="line"/>
      <point x="38" y="525" type="line"/>
      <point x="101" y="525" type="line"/>
      <point x="101" y="588" type="line" smooth="yes"/>
      <point x="101" y="686"/>
      <point x="155" y="726"/>
      <point x="251" y="726" type="curve" smooth="yes"/>
      <point x="285" y="726"/>
      <point x="314" y="721"/>
      <point x="338" y="711" type="curve"/>
    </contour>
  </outline>
</glyph>
<glyph name="bullet" format="1">
  <advance width="490"/>
  <outline>
    <contour>
      <point x="425" y="366" type="curve" smooth="yes"/>
      <point x="425" y="265"/>
      <point x="346" y="186"/>
      <point x="245" y="186" type="curve" smooth="yes"/>
      <point x="144" y="186"/>
      <point x="65" y="265"/>
      <point x="65" y="366" type="curve" smooth="yes"/>
      <point x="65" y="467"/>
      <point x="144" y="548"/>
      <point x="245" y="548" type="curve" smooth="yes"/>
      <point x="346" y="548"/>
      <point x="425" y="467"/>
    </contour>
  </outline>
</glyph>
<glyph name="macron" format="1">
  <advance width="500"/>
  <outline>
    <contour>
      <point x="395" y="610" type="line"/>
      <point x="105" y="610" type="line"/>
      <point x="105" y="715" type="line"/>
      <point x="395" y="715" type="line"/>
    </contour>
  </outline>
</glyph>
<glyph name="registered" format="1">
  <advance width="836"/>
  <outline>
    <contour>
      <point x="779" y="350" type="curve" smooth="yes"/>
      <point x="779" y="145"/>
      <point x="623" y="-11"/>
      <point x="418" y="-11" type="curve" smooth="yes"/>
      <point x="213" y="-11"/>
      <point x="57" y="145"/>
      <point x="57" y="350" type="curve" smooth="yes"/>
      <point x="57" y="555"/>
      <point x="213" y="711"/>
      <point x="418" y="711" type="curve" smooth="yes"/>
      <point x="623" y="711"/>
      <point x="779" y="555"/>
    </contour>
    <contour>
      <point x="715" y="350" type="curve" smooth="yes"/>
      <point x="715" y="519"/>
      <point x="587" y="647"/>
      <point x="418" y="647" type="curve" smooth="yes"/>
      <point x="249" y="647"/>
      <point x="121" y="519"/>
      <point x="121" y="350" type="curve" smooth="yes"/>
      <point x="121" y="181"/>
      <point x="249" y="53"/>
      <point x="418" y="53" type="curve" smooth="yes"/>
      <point x="587" y="53"/>
      <point x="715" y="181"/>
    </contour>
    <contour>
      <point x="590" y="430" type="curve" smooth="yes"/>
      <point x="590" y="362"/>
      <point x="554" y="331"/>
      <point x="512" y="315" type="curve"/>
      <point x="588" y="160" type="line"/>
      <point x="494" y="160" type="line"/>
      <point x="423" y="304" type="line"/>
      <point x="355" y="304" type="line"/>
      <point x="355" y="160" type="line"/>
      <point x="272" y="160" type="line"/>
      <point x="272" y="554" type="line"/>
      <point x="455" y="554" type="line" smooth="yes"/>
      <point x="531" y="554"/>
      <point x="590" y="514"/>
    </contour>
    <contour>
      <point x="505" y="428" type="curve" smooth="yes"/>
      <point x="505" y="463"/>
      <point x="484" y="478"/>
      <point x="449" y="478" type="curve" smooth="yes"/>
      <point x="355" y="478" type="line"/>
      <point x="355" y="377" type="line"/>
      <point x="449" y="377" type="line" smooth="yes"/>
      <point x="485" y="377"/>
      <point x="505" y="395"/>
    </contour>
  </outline>
</glyph>
